<svg width="899" height="131" viewBox="0 0 899 131" fill="none" xmlns="http://www.w3.org/2000/svg">
<path d="M262.054 48.76L252.774 95H241.814L251.094 48.76H238.134L240.054 39.16H276.934L275.014 48.76H262.054ZM306.754 71.56H288.674L283.954 95H272.994L284.194 39.16H295.154L290.594 61.96H308.674L313.234 39.16H324.194L312.994 95H302.034L306.754 71.56ZM323.541 95L334.741 39.16H367.301L365.381 48.76H343.781L341.141 61.96H360.181L358.261 71.56H339.221L336.421 85.4H358.741L356.821 95H323.541ZM382.291 95L393.491 39.16H425.251L423.331 48.76H402.531L399.891 61.96H418.131L416.211 71.56H397.971L393.251 95H382.291ZM447.052 95L446.252 81.24H430.572L424.652 95H412.972L439.372 39.16H453.932L458.252 95H447.052ZM445.132 58.92L445.052 48.76H443.932L440.412 58.92L434.972 72.36H445.772L445.132 58.92ZM478.988 95.96C474.935 95.96 471.308 95.1867 468.108 93.64C464.961 92.0933 462.615 89.56 461.068 86.04L469.628 79.56C470.588 81.8 471.815 83.48 473.308 84.6C474.801 85.72 476.881 86.28 479.548 86.28C482.695 86.28 485.095 85.56 486.748 84.12C488.455 82.6267 489.308 80.5733 489.308 77.96C489.308 76.0933 488.855 74.7067 487.948 73.8C487.041 72.8933 485.655 72.1467 483.788 71.56L480.748 70.6C477.015 69.4267 474.081 67.8 471.948 65.72C469.868 63.5867 468.828 60.4933 468.828 56.44C468.828 53.6667 469.308 51.16 470.268 48.92C471.228 46.68 472.588 44.76 474.348 43.16C476.161 41.56 478.321 40.3333 480.828 39.48C483.335 38.6267 486.135 38.2 489.228 38.2C493.121 38.2 496.508 38.8667 499.388 40.2C502.268 41.5333 504.481 43.48 506.028 46.04L497.948 53.08C497.095 51.48 496.001 50.2267 494.668 49.32C493.388 48.36 491.415 47.88 488.748 47.88C486.028 47.88 483.868 48.4667 482.268 49.64C480.721 50.76 479.948 52.5733 479.948 55.08C479.948 56.7867 480.375 58.04 481.228 58.84C482.135 59.5867 483.361 60.2 484.908 60.68L487.948 61.64C489.921 62.28 491.681 63 493.228 63.8C494.828 64.6 496.161 65.5867 497.228 66.76C498.348 67.88 499.201 69.2133 499.788 70.76C500.375 72.3067 500.668 74.12 500.668 76.2C500.668 78.8667 500.188 81.4 499.228 83.8C498.321 86.2 496.961 88.3067 495.148 90.12C493.335 91.88 491.068 93.2933 488.348 94.36C485.681 95.4267 482.561 95.96 478.988 95.96ZM534.086 48.76L524.806 95H513.846L523.126 48.76H510.166L512.086 39.16H548.966L547.046 48.76H534.086ZM545.025 95L556.225 39.16H588.785L586.865 48.76H565.265L562.625 61.96H581.665L579.745 71.56H560.705L557.905 85.4H580.225L578.305 95H545.025ZM602.582 95.96C598.528 95.96 594.902 95.1867 591.702 93.64C588.555 92.0933 586.208 89.56 584.662 86.04L593.222 79.56C594.182 81.8 595.408 83.48 596.902 84.6C598.395 85.72 600.475 86.28 603.142 86.28C606.288 86.28 608.688 85.56 610.342 84.12C612.048 82.6267 612.902 80.5733 612.902 77.96C612.902 76.0933 612.448 74.7067 611.542 73.8C610.635 72.8933 609.248 72.1467 607.382 71.56L604.342 70.6C600.608 69.4267 597.675 67.8 595.542 65.72C593.462 63.5867 592.422 60.4933 592.422 56.44C592.422 53.6667 592.902 51.16 593.862 48.92C594.822 46.68 596.182 44.76 597.942 43.16C599.755 41.56 601.915 40.3333 604.422 39.48C606.928 38.6267 609.728 38.2 612.822 38.2C616.715 38.2 620.102 38.8667 622.982 40.2C625.862 41.5333 628.075 43.48 629.622 46.04L621.542 53.08C620.688 51.48 619.595 50.2267 618.262 49.32C616.982 48.36 615.008 47.88 612.342 47.88C609.622 47.88 607.462 48.4667 605.862 49.64C604.315 50.76 603.542 52.5733 603.542 55.08C603.542 56.7867 603.968 58.04 604.822 58.84C605.728 59.5867 606.955 60.2 608.502 60.68L611.542 61.64C613.515 62.28 615.275 63 616.822 63.8C618.422 64.6 619.755 65.5867 620.822 66.76C621.942 67.88 622.795 69.2133 623.382 70.76C623.968 72.3067 624.262 74.12 624.262 76.2C624.262 78.8667 623.782 81.4 622.822 83.8C621.915 86.2 620.555 88.3067 618.742 90.12C616.928 91.88 614.662 93.2933 611.942 94.36C609.275 95.4267 606.155 95.96 602.582 95.96ZM657.679 48.76L648.399 95H637.439L646.719 48.76H633.759L635.679 39.16H672.559L670.639 48.76H657.679Z" fill="white"/>
<path fill-rule="evenodd" clip-rule="evenodd" d="M50.3183 76.9055H62.7805C64.2062 76.9055 64.8803 78.123 64.279 79.6117L61.5188 86.427H80.0435L80.5263 85.2333L82.8037 79.6117C83.405 78.123 85.0675 76.9055 86.4932 76.9055H99.0919C100.518 76.9055 101.192 78.123 100.59 79.6117L97.8303 86.427H116.355L119.115 79.6117C119.716 78.123 121.379 76.9055 122.805 76.9055H135.403C136.829 76.9055 137.503 78.123 136.902 79.6117L134.625 85.2333L134.142 86.427H152.666L155.741 78.8364C156.342 77.3478 155.668 76.1302 154.242 76.1302H141.644C140.218 76.1302 139.544 74.9127 140.145 73.4241L145.155 61.0442C145.757 59.5555 147.419 58.338 148.845 58.338H161.444C162.869 58.338 164.532 57.1204 165.133 55.6318L170.772 41.7062C171.373 40.2175 170.699 39 169.273 39H155.937C154.511 39 152.849 40.2175 152.247 41.7062L146.923 54.8613C146.321 56.35 144.659 57.5675 143.233 57.5675H130.634C129.209 57.5675 128.535 56.35 129.136 54.8613L134.461 41.7062C135.062 40.2175 134.388 39 132.962 39H119.625C118.2 39 116.537 40.2175 115.936 41.7062L110.611 54.8613C110.01 56.35 108.347 57.5675 106.922 57.5675H94.323C92.8973 57.5675 92.2232 56.35 92.8244 54.8613L98.1491 41.7062C98.7503 40.2175 98.0762 39 96.6505 39H83.3139C81.8882 39 80.2257 40.2175 79.6244 41.7062L74.2998 54.8613C73.6985 56.35 72.036 57.5675 70.6103 57.5675H58.1117C56.5676 57.5675 55.1738 58.533 54.5772 60.0169L48.756 74.4561C48.2869 75.6213 49.1068 76.9102 50.3183 76.9102V76.9055ZM103.838 73.4241L108.848 61.0442C109.45 59.5555 111.112 58.338 112.538 58.338H125.137C126.562 58.338 127.237 59.5555 126.635 61.0442L121.625 73.4241C121.024 74.9127 119.361 76.1302 117.935 76.1302H105.337C103.911 76.1302 103.237 74.9127 103.838 73.4241ZM67.5267 73.4241L72.537 61.0442C73.1383 59.5555 74.8008 58.338 76.2265 58.338H88.8253C90.2509 58.338 90.9251 59.5555 90.3238 61.0442L85.3135 73.4241C84.7122 74.9127 83.0497 76.1302 81.624 76.1302H69.0252C67.5995 76.1302 66.9254 74.9127 67.5267 73.4241ZM40.6799 44.9986L38.1474 51.2813C37.9015 51.8901 38.3296 52.5607 38.9582 52.5607H44.6199C45.5036 52.5607 46.3007 52.009 46.6423 51.1576L49.1748 44.8749C49.4207 44.2662 48.9926 43.5956 48.364 43.5956H42.7023C41.8187 43.5956 41.0216 44.1473 40.6799 44.9986ZM28.9418 81.0752L25.9584 88.4803C25.6714 89.1937 26.1725 89.9832 26.9149 89.9832H33.5833C34.6218 89.9832 35.5601 89.3316 35.9655 88.3328L38.9489 80.9277C39.2359 80.2143 38.7348 79.4248 37.9924 79.4248H31.324C30.2855 79.4248 29.3472 80.0764 28.9418 81.0752ZM8.38151 70.0846L10.0577 65.9278C10.2809 65.3666 10.8093 65.0004 11.3923 65.0004H15.1364C15.5554 65.0004 15.8333 65.4475 15.6739 65.847L13.9977 70.0037C13.7745 70.5649 13.2461 70.9312 12.6631 70.9312H8.91899C8.49994 70.9312 8.22209 70.4841 8.38151 70.0846ZM96.5779 95.9284C95.1522 95.9284 94.4781 94.7109 95.0793 93.2222L97.8304 86.4307H116.355L113.604 93.2222C113.003 94.7109 111.34 95.9284 109.915 95.9284H96.5779ZM60.2527 95.9284C59.1413 95.9284 58.1666 94.7442 58.5993 93.6741L61.519 86.4307H80.0437L77.2925 93.2222C76.6913 94.7109 75.0287 95.9284 73.6031 95.9284H60.2527ZM131.386 93.2222L134.137 86.4307H152.662L149.911 93.2222C149.31 94.7109 147.647 95.9284 146.221 95.9284H132.885C131.459 95.9284 130.785 94.7109 131.386 93.2222Z" fill="url(#paint0_linear_218_3299)"/>
<path fill-rule="evenodd" clip-rule="evenodd" d="M804.748 39C806.174 39 806.848 40.2175 806.247 41.7062L803.495 48.4978H784.971L787.722 41.7062C788.324 40.2175 789.986 39 791.412 39H804.748ZM841.072 39C842.183 39 843.158 40.1842 842.725 41.2544L839.806 48.4978H821.282L824.033 41.7062C824.634 40.2175 826.296 39 827.722 39H841.072ZM769.941 41.7062L767.19 48.4978H748.666L751.417 41.7062C752.018 40.2175 753.68 39 755.106 39H768.442C769.868 39 770.542 40.2175 769.941 41.7062ZM872.386 53.8534L875.369 46.4483C875.656 45.7349 875.155 44.9454 874.413 44.9454H867.744C866.706 44.9454 865.768 45.597 865.362 46.5957L862.379 54.0008C862.092 54.7142 862.593 55.5037 863.335 55.5037H870.004C871.042 55.5037 871.98 54.8522 872.386 53.8534ZM860.649 89.9315L863.181 83.6488C863.427 83.04 862.999 82.3694 862.371 82.3694H856.709C855.826 82.3694 855.028 82.9211 854.687 83.7724L852.154 90.0551C851.908 90.6639 852.337 91.3345 852.965 91.3345H858.627C859.51 91.3345 860.307 90.7828 860.649 89.9315ZM892.946 64.8446L891.27 69.0013C891.046 69.5626 890.518 69.9288 889.935 69.9288H886.191C885.772 69.9288 885.494 69.4817 885.654 69.0822L887.33 64.9254C887.553 64.3642 888.081 63.998 888.664 63.998H892.408C892.827 63.998 893.105 64.4451 892.946 64.8446ZM851.006 58.0247H838.544C837.118 58.0247 836.444 56.8072 837.046 55.3186L839.806 48.5032H821.282L820.799 49.6969L818.521 55.3186C817.92 56.8072 816.258 58.0247 814.832 58.0247H802.234C800.808 58.0247 800.134 56.8072 800.735 55.3186L803.495 48.5032H784.971L782.211 55.3186C781.61 56.8072 779.947 58.0247 778.522 58.0247H765.923C764.498 58.0247 763.824 56.8072 764.425 55.3186L766.702 49.6969L767.185 48.5032H748.661L745.587 56.0938C744.985 57.5824 745.659 58.8 747.085 58.8H759.683C761.109 58.8 761.783 60.0175 761.182 61.5061L756.172 73.886C755.571 75.3747 753.908 76.5922 752.482 76.5922H739.884C738.458 76.5922 736.796 77.8098 736.195 79.2984L730.556 93.224C729.955 94.7126 730.629 95.9302 732.054 95.9302H745.391C746.816 95.9302 748.479 94.7126 749.08 93.224L754.405 80.0689C755.006 78.5802 756.668 77.3627 758.094 77.3627H770.692C772.118 77.3627 772.792 78.5802 772.191 80.0689L766.866 93.224C766.265 94.7126 766.939 95.9302 768.365 95.9302H781.701C783.127 95.9302 784.789 94.7126 785.39 93.224L790.715 80.0689C791.316 78.5802 792.979 77.3627 794.404 77.3627H807.003C808.428 77.3627 809.102 78.5802 808.501 80.0689L803.177 93.224C802.575 94.7126 803.249 95.9302 804.675 95.9302H818.011C819.437 95.9302 821.099 94.7126 821.701 93.224L827.025 80.0689C827.626 78.5802 829.289 77.3627 830.715 77.3627H843.213C844.757 77.3627 846.15 76.3972 846.747 74.9133L852.568 60.4741C853.037 59.3089 852.217 58.02 851.006 58.02V58.0247ZM797.492 61.5061L792.482 73.886C791.881 75.3747 790.218 76.5922 788.793 76.5922H776.194C774.769 76.5922 774.095 75.3747 774.696 73.886L779.706 61.5061C780.307 60.0175 781.97 58.8 783.395 58.8H795.994C797.419 58.8 798.093 60.0175 797.492 61.5061ZM833.798 61.5061L828.788 73.886C828.187 75.3747 826.524 76.5922 825.099 76.5922H812.5C811.075 76.5922 810.4 75.3747 811.002 73.886L816.012 61.5061C816.613 60.0175 818.276 58.8 819.701 58.8H832.3C833.725 58.8 834.399 60.0175 833.798 61.5061Z" fill="url(#paint1_linear_218_3299)"/>
<defs>
<linearGradient id="paint0_linear_218_3299" x1="148.627" y1="67.4644" x2="8.33594" y2="67.4643" gradientUnits="userSpaceOnUse">
<stop stop-color="#F43838"/>
<stop offset="1" stop-color="#560404"/>
</linearGradient>
<linearGradient id="paint1_linear_218_3299" x1="748.665" y1="46.4626" x2="856.144" y2="41.2823" gradientUnits="userSpaceOnUse">
<stop stop-color="#F43838"/>
<stop offset="1" stop-color="#560505"/>
</linearGradient>
</defs>
</svg>
