<svg width="85" height="103" viewBox="0 0 85 103" fill="none" xmlns="http://www.w3.org/2000/svg">
<path d="M84.4869 10.5301C84.121 10.1315 83.6064 9.90398 83.0677 9.90398H69.3993C69.3047 7.12608 69.0691 4.3686 68.6955 1.67529C68.5623 0.71465 67.7465 0 66.783 0H18.2148C17.2513 0 16.4355 0.71465 16.3023 1.67627C15.9287 4.37055 15.6931 7.12803 15.5985 9.90495H1.93109C1.39239 9.90495 0.877824 10.1315 0.511931 10.5311C0.146037 10.9298 -0.0364267 11.4645 0.00605166 12.0051C0.0311525 12.3153 0.651916 19.6952 3.9855 27.7586C5.96654 32.5521 8.50173 36.591 11.5196 39.7627C15.1593 43.5888 19.4969 46.1479 24.4215 47.3779C26.5512 50.7032 28.9599 53.3916 31.6042 55.3868C32.9625 56.4126 34.3595 57.2362 35.7873 57.8584C36.0152 58.9426 36.3589 60.9747 36.4033 63.5193C36.4622 66.9603 35.9659 72.0775 33.283 76.979H26.9489C25.8821 76.979 25.0181 77.8492 25.0181 78.9236V92.641H20.8639C19.7971 92.641 18.9331 93.5112 18.9331 94.5856V101.055C18.9331 102.13 19.7971 103 20.8639 103H64.1368C65.2036 103 66.0677 102.13 66.0677 101.055V94.5856C66.0677 93.5112 65.2036 92.641 64.1368 92.641H59.9826V78.9236C59.9826 77.8492 59.1186 76.979 58.0518 76.979H51.7177C49.0338 72.0775 48.5376 66.9603 48.5975 63.5193C48.6409 60.9757 48.9856 58.9426 49.2134 57.8584C50.6413 57.2362 52.0382 56.4116 53.3966 55.3868C56.0408 53.3916 58.4496 50.7032 60.5793 47.3779C65.5039 46.1469 69.8415 43.5888 73.4801 39.7627C76.498 36.5901 79.0323 32.5521 81.0143 27.7586C84.3478 19.6952 84.9686 12.3153 84.9937 12.0051C85.0372 11.4636 84.8537 10.9288 84.4878 10.5301H84.4869ZM7.58844 26.3555C5.49059 21.3121 4.52903 16.4574 4.12259 13.7942H15.5589C15.697 24.335 17.8306 34.3032 21.6391 42.3316C15.6024 39.6451 10.8882 34.2906 7.58844 26.3565V26.3555ZM62.205 99.1117H22.7938V96.5312H62.205V99.1117ZM56.12 92.6429H28.8788V80.8702H56.12V92.6429ZM47.3994 76.9799H37.5985C39.4463 72.8846 40.3634 68.2077 40.2601 63.319C40.2254 61.6864 40.0834 60.2455 39.9184 59.0797C40.7708 59.2158 41.631 59.2848 42.4989 59.2848C43.3668 59.2848 44.227 59.2158 45.0795 59.0797C44.9144 60.2464 44.7715 61.6864 44.7377 63.319C44.6354 68.2087 45.5516 72.8846 47.3994 76.9799ZM42.4999 55.3956C36.8869 55.3956 31.5134 51.5822 27.2579 44.6185C27.2569 44.6165 27.2559 44.6146 27.255 44.6126C26.9962 44.1897 26.7423 43.756 26.4923 43.3097C21.9278 35.1656 19.4138 24.2952 19.4138 12.7013C19.4138 9.73674 19.5828 6.78091 19.9159 3.88925H65.0849C65.4179 6.77994 65.5869 9.73674 65.5869 12.7013C65.5869 24.2952 63.0729 35.1656 58.5084 43.3097C58.2584 43.755 58.0045 44.1887 57.7467 44.6107C57.7448 44.6146 57.7429 44.6175 57.74 44.6214C53.4844 51.5831 48.1119 55.3946 42.4999 55.3946V55.3956ZM77.448 26.2641C74.1472 34.2487 69.4206 39.6344 63.3597 42.3306C67.1682 34.3022 69.3028 24.335 69.4399 13.7932H80.8781C80.4756 16.435 79.5256 21.2373 77.448 26.2631V26.2641Z" fill="black"/>
</svg>
