<svg width="85" height="97" viewBox="0 0 85 97" fill="none" xmlns="http://www.w3.org/2000/svg">
<path d="M40.2163 96.3136C69.6727 96.7951 89.9637 63.9855 76.379 37.8823C75.9319 37.0397 74.9002 36.713 74.0576 37.1601C73.2322 37.59 72.9055 38.5873 73.301 39.4299C85.7335 63.2977 67.1449 93.3387 40.1991 92.8744C-8.84327 90.8453 -8.84327 20.9617 40.1991 18.9326C51.3076 18.9326 61.8142 23.9193 68.8473 32.5172C69.088 32.7924 69.4147 32.9815 69.7759 33.0675C70.3605 33.2051 70.9624 33.0675 71.4095 32.6376L75.7944 28.2355L76.0867 28.5278C77.428 29.8691 79.6118 29.8691 80.9531 28.5278C82.2084 27.049 85.1489 25.1402 84.9941 23.0595C84.9941 22.1482 84.633 21.2712 83.9796 20.6349L75.4677 12.123C74.1264 10.7818 71.9425 10.7818 70.6012 12.123L67.5576 15.1667C66.2163 16.508 66.2163 18.6918 67.5576 20.0331L67.8499 20.3254L64.5311 23.6442C62.5536 22.1482 60.4557 20.8241 58.2203 19.7236C54.8499 18.0384 51.2388 16.8347 47.5245 16.1468V11.1773C49.4504 11.3836 51.1528 9.99075 51.3592 8.06482C51.3592 7.96165 51.3764 7.84128 51.3764 7.7381V3.43916C51.3764 1.54762 49.8287 0 47.9372 0H32.461C30.5695 0 29.0218 1.54762 29.0218 3.43916V7.7381C29.039 9.66403 30.6211 11.2117 32.547 11.1945C32.6502 11.1945 32.7705 11.1945 32.8737 11.1773V16.1468C-14.879 26.2236 -9.03242 94.852 40.1991 96.2964L40.2163 96.3136ZM73.0431 14.5648L81.555 23.0767L78.5113 26.1204L69.9994 17.6085L73.0431 14.5648ZM70.2401 28.9405C69.2772 27.8572 68.2454 26.8426 67.1621 25.8625L70.2745 22.75L73.3526 25.8281L70.2401 28.9405ZM32.4782 3.45635H47.9544V7.7553C47.9544 7.7553 33.7163 7.7553 32.4782 7.7553V3.45635ZM36.3301 11.1945H44.1025V15.6826C41.5232 15.4246 38.9094 15.4246 36.3301 15.6826V11.1945Z" fill="white"/>
<path d="M13.9742 39.4815C13.1488 39.0172 12.0999 39.3095 11.6356 40.1349C8.95302 44.9497 7.54297 50.3836 7.54297 55.9034C9.33133 99.2368 71.0986 99.2368 72.887 55.9034C72.8698 37.8651 58.2533 23.2486 40.215 23.2314C34.6951 23.2314 29.2612 24.6415 24.4464 27.324C23.621 27.7883 23.3287 28.8373 23.793 29.6627C24.2573 30.4881 25.3062 30.7804 26.1316 30.3161C44.9782 19.3968 69.8433 34.0992 69.4478 55.9034C69.4306 72.0331 56.3446 85.1191 40.215 85.1363C18.4107 85.5318 3.7255 60.6667 14.6276 41.8201C15.0919 40.9947 14.7996 39.9457 13.9742 39.4815Z" fill="white"/>
<path d="M40.2157 62.7811C44.016 62.7811 47.094 59.7203 47.094 55.92C47.094 52.1197 44.0332 49.0417 40.2329 49.0417C38.9948 49.0417 37.7911 49.3684 36.7421 49.9875L19.5464 32.7917C18.8757 32.121 17.7924 32.1038 17.1218 32.7917C16.4511 33.4623 16.4339 34.5456 17.1218 35.2163L34.3175 52.4121C32.4088 55.6965 33.5265 59.9266 36.8109 61.8354C37.8427 62.4372 39.012 62.7639 40.2157 62.7639V62.7811ZM43.6548 55.9028C43.6205 57.7943 42.0728 59.3248 40.1641 59.2904C38.307 59.256 36.7937 57.76 36.7765 55.9028C36.8109 54.0113 38.3585 52.4808 40.2673 52.5152C42.1244 52.5496 43.6376 54.0457 43.6548 55.9028Z" fill="white"/>
</svg>
