<svg width="899" height="131" viewBox="0 0 899 131" fill="none" xmlns="http://www.w3.org/2000/svg">
<path d="M190.611 95L201.811 39.16H212.771L203.491 85.4H221.731L219.811 95H190.611ZM226.705 95L237.905 39.16H270.465L268.545 48.76H246.945L244.305 61.96H263.345L261.425 71.56H242.385L239.585 85.4H261.905L259.985 95H226.705ZM298.341 95L297.541 81.24H281.861L275.941 95H264.261L290.661 39.16H305.221L309.541 95H298.341ZM296.421 58.92L296.341 48.76H295.221L291.701 58.92L286.261 72.36H297.061L296.421 58.92ZM326.889 39.16H345.289C348.702 39.16 351.502 39.64 353.689 40.6C355.929 41.56 357.716 42.8933 359.049 44.6C360.382 46.2533 361.316 48.2 361.849 50.44C362.382 52.68 362.649 55.08 362.649 57.64C362.649 59.9333 362.462 62.2533 362.089 64.6C361.769 66.8933 361.396 69.1067 360.969 71.24C360.169 74.8667 359.076 78.1467 357.689 81.08C356.356 84.0133 354.622 86.52 352.489 88.6C350.409 90.6267 347.902 92.2 344.969 93.32C342.089 94.44 338.756 95 334.969 95H315.689L326.889 39.16ZM336.409 85.4C338.329 85.4 339.956 85.1867 341.289 84.76C342.676 84.28 343.849 83.5067 344.809 82.44C345.822 81.3733 346.649 79.96 347.289 78.2C347.982 76.3867 348.622 74.12 349.209 71.4L350.729 63.96C350.996 62.7333 351.182 61.6133 351.289 60.6C351.449 59.5867 351.529 58.7333 351.529 58.04C351.529 54.7867 350.942 52.44 349.769 51C348.649 49.5067 346.676 48.76 343.849 48.76H335.929L328.569 85.4H336.409ZM364.595 95L375.795 39.16H408.355L406.435 48.76H384.835L382.195 61.96H401.235L399.315 71.56H380.275L377.475 85.4H399.795L397.875 95H364.595ZM417.352 95H406.392L417.592 39.16H437.432C442.445 39.16 446.205 40.2267 448.712 42.36C451.272 44.4933 452.552 48.0933 452.552 53.16C452.552 57.9067 451.405 62.0133 449.112 65.48C446.872 68.8933 443.779 71.2933 439.832 72.68L445.432 95H433.912L429.352 73.8H421.592L417.352 95ZM433.912 64.52C435.779 64.52 437.192 64.04 438.152 63.08C439.165 62.12 439.885 60.5467 440.312 58.36C440.632 56.8133 440.845 55.6667 440.952 54.92C441.112 54.12 441.192 53.4533 441.192 52.92C441.192 51.5333 440.872 50.4933 440.232 49.8C439.645 49.1067 438.552 48.76 436.952 48.76H426.632L423.432 64.52H433.912ZM482.123 39.16H503.963C507.963 39.16 511.003 40.0933 513.083 41.96C515.217 43.7733 516.283 46.6533 516.283 50.6C516.283 52.5733 516.017 54.4133 515.483 56.12C515.003 57.8267 514.283 59.3467 513.323 60.68C512.363 62.0133 511.163 63.1067 509.723 63.96C508.337 64.8133 506.71 65.3467 504.843 65.56L504.603 66.68C510.47 67.2133 513.403 70.44 513.403 76.36C513.403 82.44 511.883 87.08 508.843 90.28C505.857 93.4267 501.457 95 495.643 95H470.923L482.123 39.16ZM495.963 85.64C497.563 85.64 498.763 85.2133 499.563 84.36C500.417 83.4533 501.057 81.9867 501.483 79.96C501.803 78.36 502.017 77.2667 502.123 76.68C502.23 76.0933 502.283 75.6133 502.283 75.24C502.283 73.9067 502.043 72.92 501.563 72.28C501.083 71.64 500.23 71.32 499.003 71.32H486.603L483.723 85.64H495.963ZM498.683 62.36C500.23 62.36 501.403 61.9333 502.203 61.08C503.003 60.2267 503.643 58.8133 504.123 56.84C504.443 55.56 504.657 54.5467 504.763 53.8C504.87 53.0533 504.923 52.4933 504.923 52.12C504.923 50.8933 504.683 49.9867 504.203 49.4C503.723 48.8133 502.843 48.52 501.563 48.52H491.163L488.443 62.36H498.683ZM537.796 95.96C534.383 95.96 531.556 95.48 529.316 94.52C527.076 93.56 525.29 92.2533 523.956 90.6C522.676 88.8933 521.77 86.92 521.236 84.68C520.703 82.44 520.436 80.04 520.436 77.48C520.436 75.0267 520.623 72.5733 520.996 70.12C521.37 67.6133 521.796 65.2133 522.276 62.92C523.076 59.1333 524.17 55.72 525.556 52.68C526.996 49.64 528.783 47.0533 530.916 44.92C533.05 42.7333 535.53 41.08 538.356 39.96C541.236 38.7867 544.516 38.2 548.196 38.2C551.61 38.2 554.41 38.68 556.596 39.64C558.836 40.6 560.623 41.9333 561.956 43.64C563.29 45.2933 564.223 47.24 564.756 49.48C565.29 51.72 565.556 54.12 565.556 56.68C565.556 59.1333 565.37 61.6133 564.996 64.12C564.623 66.5733 564.196 68.9467 563.716 71.24C562.916 75.0267 561.796 78.44 560.356 81.48C558.97 84.52 557.21 87.1333 555.076 89.32C552.943 91.4533 550.436 93.1067 547.556 94.28C544.73 95.4 541.476 95.96 537.796 95.96ZM539.236 86.28C541.05 86.28 542.623 86.04 543.956 85.56C545.29 85.08 546.436 84.28 547.396 83.16C548.41 82.04 549.263 80.52 549.956 78.6C550.703 76.68 551.37 74.28 551.956 71.4L553.636 63C553.903 61.7733 554.09 60.6533 554.196 59.64C554.356 58.6267 554.436 57.7733 554.436 57.08C554.436 53.88 553.823 51.56 552.596 50.12C551.37 48.6267 549.423 47.88 546.756 47.88C544.943 47.88 543.37 48.12 542.036 48.6C540.703 49.08 539.53 49.88 538.516 51C537.556 52.12 536.703 53.64 535.956 55.56C535.263 57.48 534.623 59.88 534.036 62.76L532.356 71.16C532.09 72.3867 531.876 73.5067 531.716 74.52C531.61 75.5333 531.556 76.3867 531.556 77.08C531.556 80.28 532.17 82.6267 533.396 84.12C534.623 85.56 536.57 86.28 539.236 86.28ZM596.31 95L595.51 81.24H579.83L573.91 95H562.23L588.63 39.16H603.19L607.51 95H596.31ZM594.39 58.92L594.31 48.76H593.19L589.67 58.92L584.23 72.36H595.03L594.39 58.92ZM624.618 95H613.658L624.858 39.16H644.698C649.711 39.16 653.471 40.2267 655.978 42.36C658.538 44.4933 659.818 48.0933 659.818 53.16C659.818 57.9067 658.671 62.0133 656.378 65.48C654.138 68.8933 651.044 71.2933 647.098 72.68L652.698 95H641.178L636.618 73.8H628.858L624.618 95ZM641.178 64.52C643.044 64.52 644.458 64.04 645.418 63.08C646.431 62.12 647.151 60.5467 647.578 58.36C647.898 56.8133 648.111 55.6667 648.218 54.92C648.378 54.12 648.458 53.4533 648.458 52.92C648.458 51.5333 648.138 50.4933 647.498 49.8C646.911 49.1067 645.818 48.76 644.218 48.76H633.898L630.698 64.52H641.178ZM672.436 39.16H690.836C694.249 39.16 697.049 39.64 699.236 40.6C701.476 41.56 703.262 42.8933 704.596 44.6C705.929 46.2533 706.862 48.2 707.396 50.44C707.929 52.68 708.196 55.08 708.196 57.64C708.196 59.9333 708.009 62.2533 707.636 64.6C707.316 66.8933 706.942 69.1067 706.516 71.24C705.716 74.8667 704.622 78.1467 703.236 81.08C701.902 84.0133 700.169 86.52 698.036 88.6C695.956 90.6267 693.449 92.2 690.516 93.32C687.636 94.44 684.302 95 680.516 95H661.236L672.436 39.16ZM681.956 85.4C683.876 85.4 685.502 85.1867 686.836 84.76C688.222 84.28 689.396 83.5067 690.356 82.44C691.369 81.3733 692.196 79.96 692.836 78.2C693.529 76.3867 694.169 74.12 694.756 71.4L696.276 63.96C696.542 62.7333 696.729 61.6133 696.836 60.6C696.996 59.5867 697.076 58.7333 697.076 58.04C697.076 54.7867 696.489 52.44 695.316 51C694.196 49.5067 692.222 48.76 689.396 48.76H681.476L674.116 85.4H681.956Z" fill="white"/>
<path d="M170.229 39H156.497C155.029 39 153.317 40.1976 152.698 41.6618L147.215 54.601C146.596 56.0652 144.884 57.2628 143.416 57.2628H130.443C128.975 57.2628 128.281 56.0652 128.9 54.601L134.383 41.6618C135.002 40.1976 134.308 39 132.84 39H119.107C117.639 39 115.927 40.1976 115.308 41.6618L109.825 54.601C109.206 56.0652 107.494 57.2628 106.026 57.2628H93.0533C91.5853 57.2628 90.8911 56.0652 91.5102 54.601L96.993 41.6618C97.6121 40.1976 96.9179 39 95.4499 39H81.7173C80.2493 39 78.5374 40.1976 77.9183 41.6618L72.4355 54.601C71.8164 56.0652 70.1045 57.2628 68.6365 57.2628H55.7669C54.1769 57.2628 52.7417 58.2124 52.1273 59.672L46.138 73.8743C45.655 75.0204 46.4992 76.2881 47.7468 76.2881H60.5789C62.0469 76.2881 62.7411 77.4857 62.122 78.9499L59.2798 85.6534L56.2734 92.778C55.8278 93.8305 56.8315 94.9953 57.9759 94.9953H71.7226C73.1906 94.9953 74.9025 93.7978 75.5216 92.3336L78.3545 85.6534L78.8516 84.4792L81.1967 78.9499C81.8158 77.4857 83.5277 76.2881 84.9957 76.2881H97.9685C99.4365 76.2881 100.131 77.4857 99.5116 78.9499L96.6694 85.6534L93.8365 92.3336C93.2174 93.7978 93.9116 94.9953 95.3796 94.9953H109.112C110.58 94.9953 112.292 93.7978 112.911 92.3336L115.744 85.6534L118.586 78.9499C119.205 77.4857 120.917 76.2881 122.385 76.2881H135.358C136.826 76.2881 137.52 77.4857 136.901 78.9499L134.556 84.4792L134.059 85.6534L131.226 92.3336C130.607 93.7978 131.301 94.9953 132.769 94.9953H146.502C147.97 94.9953 149.682 93.7978 150.301 92.3336L153.134 85.6534L156.3 78.1874C156.919 76.7232 156.224 75.5256 154.756 75.5256H141.784C140.316 75.5256 139.621 74.328 140.241 72.8638L145.4 60.6871C146.019 59.2229 147.731 58.0253 149.199 58.0253H162.172C163.64 58.0253 165.351 56.8277 165.971 55.3635L171.777 41.6664C172.396 40.2022 171.702 39.0047 170.234 39.0047L170.229 39ZM88.9307 60.6871L83.7715 72.8638C83.1525 74.328 81.4406 75.5256 79.9726 75.5256H66.9997C65.5317 75.5256 64.8375 74.328 65.4566 72.8638L70.6158 60.6871C71.2349 59.2229 72.9468 58.0253 74.4148 58.0253H87.3876C88.8556 58.0253 89.5498 59.2229 88.9307 60.6871ZM126.32 60.6871L121.161 72.8638C120.542 74.328 118.83 75.5256 117.362 75.5256H104.389C102.921 75.5256 102.227 74.328 102.846 72.8638L108.005 60.6871C108.624 59.2229 110.336 58.0253 111.804 58.0253H124.777C126.245 58.0253 126.939 59.2229 126.32 60.6871Z" fill="url(#paint0_linear_206_3279)"/>
<path d="M731.775 94.9951L745.507 94.9951C746.975 94.9951 748.687 93.7976 749.306 92.3334L754.789 79.3941C755.408 77.9299 757.12 76.7323 758.588 76.7323L771.561 76.7323C773.029 76.7323 773.723 77.9299 773.104 79.3941L767.621 92.3334C767.002 93.7976 767.696 94.9951 769.164 94.9951L782.897 94.9951C784.365 94.9951 786.077 93.7976 786.696 92.3334L792.179 79.3941C792.798 77.9299 794.51 76.7323 795.978 76.7323L808.951 76.7323C810.419 76.7323 811.113 77.9299 810.494 79.3941L805.011 92.3334C804.392 93.7976 805.086 94.9951 806.554 94.9951L820.287 94.9951C821.755 94.9951 823.467 93.7976 824.086 92.3334L829.568 79.3941C830.187 77.9299 831.899 76.7323 833.367 76.7323L846.237 76.7323C847.827 76.7323 849.262 75.7827 849.877 74.3232L855.866 60.1208C856.349 58.9747 855.505 57.707 854.257 57.707L841.425 57.707C839.957 57.707 839.263 56.5094 839.882 55.0452L842.724 48.3417L845.731 41.2172C846.176 40.1646 845.172 38.9998 844.028 38.9998L830.281 38.9998C828.813 38.9998 827.101 40.1974 826.482 41.6616L823.649 48.3417L823.152 49.5159L820.807 55.0452C820.188 56.5094 818.476 57.707 817.008 57.707L804.035 57.707C802.567 57.707 801.873 56.5094 802.492 55.0452L805.335 48.3417L808.167 41.6616C808.786 40.1974 808.092 38.9998 806.624 38.9998L792.892 38.9998C791.424 38.9998 789.712 40.1974 789.093 41.6616L786.26 48.3417L783.418 55.0452C782.799 56.5095 781.087 57.707 779.619 57.707L766.646 57.707C765.178 57.707 764.484 56.5095 765.103 55.0452L767.448 49.5159L767.945 48.3417L770.778 41.6616C771.397 40.1974 770.703 38.9998 769.235 38.9998L755.502 38.9998C754.034 38.9998 752.322 40.1974 751.703 41.6616L748.87 48.3417L745.704 55.8078C745.085 57.272 745.779 58.4695 747.247 58.4695L760.22 58.4695C761.688 58.4695 762.382 59.6671 761.763 61.1313L756.604 73.308C755.985 74.7723 754.273 75.9698 752.805 75.9698L739.832 75.9698C738.364 75.9698 736.652 77.1674 736.033 78.6316L730.227 92.3287C729.608 93.7929 730.302 94.9905 731.77 94.9905L731.775 94.9951ZM813.073 73.308L818.232 61.1313C818.851 59.6671 820.563 58.4695 822.031 58.4695L835.004 58.4695C836.472 58.4695 837.166 59.6671 836.547 61.1313L831.388 73.308C830.769 74.7722 829.057 75.9698 827.589 75.9698L814.616 75.9698C813.148 75.9698 812.454 74.7722 813.073 73.308ZM775.684 73.308L780.843 61.1313C781.462 59.6671 783.174 58.4695 784.642 58.4695L797.615 58.4695C799.083 58.4695 799.777 59.6671 799.158 61.1313L793.999 73.308C793.379 74.7723 791.668 75.9698 790.2 75.9698L777.227 75.9698C775.759 75.9698 775.065 74.7723 775.684 73.308Z" fill="url(#paint1_linear_206_3279)"/>
<defs>
<linearGradient id="paint0_linear_206_3279" x1="172.003" y1="66.9977" x2="46" y2="66.9977" gradientUnits="userSpaceOnUse">
<stop stop-color="#F43838"/>
<stop offset="1"/>
</linearGradient>
<linearGradient id="paint1_linear_206_3279" x1="730" y1="66.9975" x2="856.004" y2="66.9975" gradientUnits="userSpaceOnUse">
<stop stop-color="#F43838"/>
<stop offset="1"/>
</linearGradient>
</defs>
</svg>
