<svg width="899" height="131" viewBox="0 0 899 131" fill="none" xmlns="http://www.w3.org/2000/svg">
<path d="M190.611 95L201.811 39.16H212.771L203.491 85.4H221.731L219.811 95H190.611ZM226.705 95L237.905 39.16H270.465L268.545 48.76H246.945L244.305 61.96H263.345L261.425 71.56H242.385L239.585 85.4H261.905L259.985 95H226.705ZM298.341 95L297.541 81.24H281.861L275.941 95H264.261L290.661 39.16H305.221L309.541 95H298.341ZM296.421 58.92L296.341 48.76H295.221L291.701 58.92L286.261 72.36H297.061L296.421 58.92ZM326.889 39.16H345.289C348.702 39.16 351.502 39.64 353.689 40.6C355.929 41.56 357.716 42.8933 359.049 44.6C360.382 46.2533 361.316 48.2 361.849 50.44C362.382 52.68 362.649 55.08 362.649 57.64C362.649 59.9333 362.462 62.2533 362.089 64.6C361.769 66.8933 361.396 69.1067 360.969 71.24C360.169 74.8667 359.076 78.1467 357.689 81.08C356.356 84.0133 354.622 86.52 352.489 88.6C350.409 90.6267 347.902 92.2 344.969 93.32C342.089 94.44 338.756 95 334.969 95H315.689L326.889 39.16ZM336.409 85.4C338.329 85.4 339.956 85.1867 341.289 84.76C342.676 84.28 343.849 83.5067 344.809 82.44C345.822 81.3733 346.649 79.96 347.289 78.2C347.982 76.3867 348.622 74.12 349.209 71.4L350.729 63.96C350.996 62.7333 351.182 61.6133 351.289 60.6C351.449 59.5867 351.529 58.7333 351.529 58.04C351.529 54.7867 350.942 52.44 349.769 51C348.649 49.5067 346.676 48.76 343.849 48.76H335.929L328.569 85.4H336.409ZM364.595 95L375.795 39.16H408.355L406.435 48.76H384.835L382.195 61.96H401.235L399.315 71.56H380.275L377.475 85.4H399.795L397.875 95H364.595ZM417.352 95H406.392L417.592 39.16H437.432C442.445 39.16 446.205 40.2267 448.712 42.36C451.272 44.4933 452.552 48.0933 452.552 53.16C452.552 57.9067 451.405 62.0133 449.112 65.48C446.872 68.8933 443.779 71.2933 439.832 72.68L445.432 95H433.912L429.352 73.8H421.592L417.352 95ZM433.912 64.52C435.779 64.52 437.192 64.04 438.152 63.08C439.165 62.12 439.885 60.5467 440.312 58.36C440.632 56.8133 440.845 55.6667 440.952 54.92C441.112 54.12 441.192 53.4533 441.192 52.92C441.192 51.5333 440.872 50.4933 440.232 49.8C439.645 49.1067 438.552 48.76 436.952 48.76H426.632L423.432 64.52H433.912ZM482.123 39.16H503.963C507.963 39.16 511.003 40.0933 513.083 41.96C515.217 43.7733 516.283 46.6533 516.283 50.6C516.283 52.5733 516.017 54.4133 515.483 56.12C515.003 57.8267 514.283 59.3467 513.323 60.68C512.363 62.0133 511.163 63.1067 509.723 63.96C508.337 64.8133 506.71 65.3467 504.843 65.56L504.603 66.68C510.47 67.2133 513.403 70.44 513.403 76.36C513.403 82.44 511.883 87.08 508.843 90.28C505.857 93.4267 501.457 95 495.643 95H470.923L482.123 39.16ZM495.963 85.64C497.563 85.64 498.763 85.2133 499.563 84.36C500.417 83.4533 501.057 81.9867 501.483 79.96C501.803 78.36 502.017 77.2667 502.123 76.68C502.23 76.0933 502.283 75.6133 502.283 75.24C502.283 73.9067 502.043 72.92 501.563 72.28C501.083 71.64 500.23 71.32 499.003 71.32H486.603L483.723 85.64H495.963ZM498.683 62.36C500.23 62.36 501.403 61.9333 502.203 61.08C503.003 60.2267 503.643 58.8133 504.123 56.84C504.443 55.56 504.657 54.5467 504.763 53.8C504.87 53.0533 504.923 52.4933 504.923 52.12C504.923 50.8933 504.683 49.9867 504.203 49.4C503.723 48.8133 502.843 48.52 501.563 48.52H491.163L488.443 62.36H498.683ZM537.796 95.96C534.383 95.96 531.556 95.48 529.316 94.52C527.076 93.56 525.29 92.2533 523.956 90.6C522.676 88.8933 521.77 86.92 521.236 84.68C520.703 82.44 520.436 80.04 520.436 77.48C520.436 75.0267 520.623 72.5733 520.996 70.12C521.37 67.6133 521.796 65.2133 522.276 62.92C523.076 59.1333 524.17 55.72 525.556 52.68C526.996 49.64 528.783 47.0533 530.916 44.92C533.05 42.7333 535.53 41.08 538.356 39.96C541.236 38.7867 544.516 38.2 548.196 38.2C551.61 38.2 554.41 38.68 556.596 39.64C558.836 40.6 560.623 41.9333 561.956 43.64C563.29 45.2933 564.223 47.24 564.756 49.48C565.29 51.72 565.556 54.12 565.556 56.68C565.556 59.1333 565.37 61.6133 564.996 64.12C564.623 66.5733 564.196 68.9467 563.716 71.24C562.916 75.0267 561.796 78.44 560.356 81.48C558.97 84.52 557.21 87.1333 555.076 89.32C552.943 91.4533 550.436 93.1067 547.556 94.28C544.73 95.4 541.476 95.96 537.796 95.96ZM539.236 86.28C541.05 86.28 542.623 86.04 543.956 85.56C545.29 85.08 546.436 84.28 547.396 83.16C548.41 82.04 549.263 80.52 549.956 78.6C550.703 76.68 551.37 74.28 551.956 71.4L553.636 63C553.903 61.7733 554.09 60.6533 554.196 59.64C554.356 58.6267 554.436 57.7733 554.436 57.08C554.436 53.88 553.823 51.56 552.596 50.12C551.37 48.6267 549.423 47.88 546.756 47.88C544.943 47.88 543.37 48.12 542.036 48.6C540.703 49.08 539.53 49.88 538.516 51C537.556 52.12 536.703 53.64 535.956 55.56C535.263 57.48 534.623 59.88 534.036 62.76L532.356 71.16C532.09 72.3867 531.876 73.5067 531.716 74.52C531.61 75.5333 531.556 76.3867 531.556 77.08C531.556 80.28 532.17 82.6267 533.396 84.12C534.623 85.56 536.57 86.28 539.236 86.28ZM596.31 95L595.51 81.24H579.83L573.91 95H562.23L588.63 39.16H603.19L607.51 95H596.31ZM594.39 58.92L594.31 48.76H593.19L589.67 58.92L584.23 72.36H595.03L594.39 58.92ZM624.618 95H613.658L624.858 39.16H644.698C649.711 39.16 653.471 40.2267 655.978 42.36C658.538 44.4933 659.818 48.0933 659.818 53.16C659.818 57.9067 658.671 62.0133 656.378 65.48C654.138 68.8933 651.044 71.2933 647.098 72.68L652.698 95H641.178L636.618 73.8H628.858L624.618 95ZM641.178 64.52C643.044 64.52 644.458 64.04 645.418 63.08C646.431 62.12 647.151 60.5467 647.578 58.36C647.898 56.8133 648.111 55.6667 648.218 54.92C648.378 54.12 648.458 53.4533 648.458 52.92C648.458 51.5333 648.138 50.4933 647.498 49.8C646.911 49.1067 645.818 48.76 644.218 48.76H633.898L630.698 64.52H641.178ZM672.436 39.16H690.836C694.249 39.16 697.049 39.64 699.236 40.6C701.476 41.56 703.262 42.8933 704.596 44.6C705.929 46.2533 706.862 48.2 707.396 50.44C707.929 52.68 708.196 55.08 708.196 57.64C708.196 59.9333 708.009 62.2533 707.636 64.6C707.316 66.8933 706.942 69.1067 706.516 71.24C705.716 74.8667 704.622 78.1467 703.236 81.08C701.902 84.0133 700.169 86.52 698.036 88.6C695.956 90.6267 693.449 92.2 690.516 93.32C687.636 94.44 684.302 95 680.516 95H661.236L672.436 39.16ZM681.956 85.4C683.876 85.4 685.502 85.1867 686.836 84.76C688.222 84.28 689.396 83.5067 690.356 82.44C691.369 81.3733 692.196 79.96 692.836 78.2C693.529 76.3867 694.169 74.12 694.756 71.4L696.276 63.96C696.542 62.7333 696.729 61.6133 696.836 60.6C696.996 59.5867 697.076 58.7333 697.076 58.04C697.076 54.7867 696.489 52.44 695.316 51C694.196 49.5067 692.222 48.76 689.396 48.76H681.476L674.116 85.4H681.956Z" fill="white"/>
<path fill-rule="evenodd" clip-rule="evenodd" d="M50.3183 76.9055H62.7805C64.2062 76.9055 64.8803 78.123 64.279 79.6117L61.5188 86.427H80.0435L80.5263 85.2333L82.8037 79.6117C83.405 78.123 85.0675 76.9055 86.4932 76.9055H99.0919C100.518 76.9055 101.192 78.123 100.59 79.6117L97.8303 86.427H116.355L119.115 79.6117C119.716 78.123 121.379 76.9055 122.805 76.9055H135.403C136.829 76.9055 137.503 78.123 136.902 79.6117L134.625 85.2333L134.142 86.427H152.666L155.741 78.8364C156.342 77.3478 155.668 76.1302 154.242 76.1302H141.644C140.218 76.1302 139.544 74.9127 140.145 73.4241L145.155 61.0442C145.757 59.5555 147.419 58.338 148.845 58.338H161.444C162.869 58.338 164.532 57.1204 165.133 55.6318L170.772 41.7062C171.373 40.2175 170.699 39 169.273 39H155.937C154.511 39 152.849 40.2175 152.247 41.7062L146.923 54.8613C146.321 56.35 144.659 57.5675 143.233 57.5675H130.634C129.209 57.5675 128.535 56.35 129.136 54.8613L134.461 41.7062C135.062 40.2175 134.388 39 132.962 39H119.625C118.2 39 116.537 40.2175 115.936 41.7062L110.611 54.8613C110.01 56.35 108.347 57.5675 106.922 57.5675H94.323C92.8973 57.5675 92.2232 56.35 92.8244 54.8613L98.1491 41.7062C98.7503 40.2175 98.0762 39 96.6505 39H83.3139C81.8882 39 80.2257 40.2175 79.6244 41.7062L74.2998 54.8613C73.6985 56.35 72.036 57.5675 70.6103 57.5675H58.1117C56.5676 57.5675 55.1738 58.533 54.5772 60.0169L48.756 74.4561C48.2869 75.6213 49.1068 76.9102 50.3183 76.9102V76.9055ZM103.838 73.4241L108.848 61.0442C109.45 59.5555 111.112 58.338 112.538 58.338H125.137C126.562 58.338 127.237 59.5555 126.635 61.0442L121.625 73.4241C121.024 74.9127 119.361 76.1302 117.935 76.1302H105.337C103.911 76.1302 103.237 74.9127 103.838 73.4241ZM67.5267 73.4241L72.537 61.0442C73.1383 59.5555 74.8008 58.338 76.2265 58.338H88.8253C90.2509 58.338 90.9251 59.5555 90.3238 61.0442L85.3135 73.4241C84.7122 74.9127 83.0497 76.1302 81.624 76.1302H69.0252C67.5995 76.1302 66.9254 74.9127 67.5267 73.4241ZM40.6799 44.9986L38.1474 51.2813C37.9015 51.8901 38.3296 52.5607 38.9582 52.5607H44.6199C45.5036 52.5607 46.3007 52.009 46.6423 51.1576L49.1748 44.8749C49.4207 44.2662 48.9926 43.5956 48.364 43.5956H42.7023C41.8187 43.5956 41.0216 44.1473 40.6799 44.9986ZM28.9418 81.0752L25.9584 88.4803C25.6714 89.1937 26.1725 89.9832 26.9149 89.9832H33.5833C34.6218 89.9832 35.5601 89.3316 35.9655 88.3328L38.9489 80.9277C39.2359 80.2143 38.7348 79.4248 37.9924 79.4248H31.324C30.2855 79.4248 29.3472 80.0764 28.9418 81.0752ZM8.38151 70.0846L10.0577 65.9278C10.2809 65.3666 10.8093 65.0004 11.3923 65.0004H15.1364C15.5554 65.0004 15.8333 65.4475 15.6739 65.847L13.9977 70.0037C13.7745 70.5649 13.2461 70.9312 12.6631 70.9312H8.91899C8.49994 70.9312 8.22209 70.4841 8.38151 70.0846ZM96.5779 95.9284C95.1522 95.9284 94.4781 94.7109 95.0793 93.2222L97.8304 86.4307H116.355L113.604 93.2222C113.003 94.7109 111.34 95.9284 109.915 95.9284H96.5779ZM60.2527 95.9284C59.1413 95.9284 58.1666 94.7442 58.5993 93.6741L61.519 86.4307H80.0437L77.2925 93.2222C76.6913 94.7109 75.0287 95.9284 73.6031 95.9284H60.2527ZM131.386 93.2222L134.137 86.4307H152.662L149.911 93.2222C149.31 94.7109 147.647 95.9284 146.221 95.9284H132.885C131.459 95.9284 130.785 94.7109 131.386 93.2222Z" fill="url(#paint0_linear_206_3279)"/>
<path fill-rule="evenodd" clip-rule="evenodd" d="M804.748 39C806.174 39 806.848 40.2175 806.247 41.7062L803.495 48.4978H784.971L787.722 41.7062C788.324 40.2175 789.986 39 791.412 39H804.748ZM841.072 39C842.183 39 843.158 40.1842 842.725 41.2544L839.806 48.4978H821.282L824.033 41.7062C824.634 40.2175 826.296 39 827.722 39H841.072ZM769.941 41.7062L767.19 48.4978H748.666L751.417 41.7062C752.018 40.2175 753.68 39 755.106 39H768.442C769.868 39 770.542 40.2175 769.941 41.7062ZM872.386 53.8534L875.369 46.4483C875.656 45.7349 875.155 44.9454 874.413 44.9454H867.744C866.706 44.9454 865.768 45.597 865.362 46.5957L862.379 54.0008C862.092 54.7142 862.593 55.5037 863.335 55.5037H870.004C871.042 55.5037 871.98 54.8522 872.386 53.8534ZM860.649 89.9315L863.181 83.6488C863.427 83.04 862.999 82.3694 862.371 82.3694H856.709C855.826 82.3694 855.028 82.9211 854.687 83.7724L852.154 90.0551C851.908 90.6639 852.337 91.3345 852.965 91.3345H858.627C859.51 91.3345 860.307 90.7828 860.649 89.9315ZM892.946 64.8446L891.27 69.0013C891.046 69.5626 890.518 69.9288 889.935 69.9288H886.191C885.772 69.9288 885.494 69.4817 885.654 69.0822L887.33 64.9254C887.553 64.3642 888.081 63.998 888.664 63.998H892.408C892.827 63.998 893.105 64.4451 892.946 64.8446ZM851.006 58.0247H838.544C837.118 58.0247 836.444 56.8072 837.046 55.3186L839.806 48.5032H821.282L820.799 49.6969L818.521 55.3186C817.92 56.8072 816.258 58.0247 814.832 58.0247H802.234C800.808 58.0247 800.134 56.8072 800.735 55.3186L803.495 48.5032H784.971L782.211 55.3186C781.61 56.8072 779.947 58.0247 778.522 58.0247H765.923C764.498 58.0247 763.824 56.8072 764.425 55.3186L766.702 49.6969L767.185 48.5032H748.661L745.587 56.0938C744.985 57.5824 745.659 58.8 747.085 58.8H759.683C761.109 58.8 761.783 60.0175 761.182 61.5061L756.172 73.886C755.571 75.3747 753.908 76.5922 752.482 76.5922H739.884C738.458 76.5922 736.796 77.8098 736.195 79.2984L730.556 93.224C729.955 94.7126 730.629 95.9302 732.054 95.9302H745.391C746.816 95.9302 748.479 94.7126 749.08 93.224L754.405 80.0689C755.006 78.5802 756.668 77.3627 758.094 77.3627H770.692C772.118 77.3627 772.792 78.5802 772.191 80.0689L766.866 93.224C766.265 94.7126 766.939 95.9302 768.365 95.9302H781.701C783.127 95.9302 784.789 94.7126 785.39 93.224L790.715 80.0689C791.316 78.5802 792.979 77.3627 794.404 77.3627H807.003C808.428 77.3627 809.102 78.5802 808.501 80.0689L803.177 93.224C802.575 94.7126 803.249 95.9302 804.675 95.9302H818.011C819.437 95.9302 821.099 94.7126 821.701 93.224L827.025 80.0689C827.626 78.5802 829.289 77.3627 830.715 77.3627H843.213C844.757 77.3627 846.15 76.3972 846.747 74.9133L852.568 60.4741C853.037 59.3089 852.217 58.02 851.006 58.02V58.0247ZM797.492 61.5061L792.482 73.886C791.881 75.3747 790.218 76.5922 788.793 76.5922H776.194C774.769 76.5922 774.095 75.3747 774.696 73.886L779.706 61.5061C780.307 60.0175 781.97 58.8 783.395 58.8H795.994C797.419 58.8 798.093 60.0175 797.492 61.5061ZM833.798 61.5061L828.788 73.886C828.187 75.3747 826.524 76.5922 825.099 76.5922H812.5C811.075 76.5922 810.4 75.3747 811.002 73.886L816.012 61.5061C816.613 60.0175 818.276 58.8 819.701 58.8H832.3C833.725 58.8 834.399 60.0175 833.798 61.5061Z" fill="url(#paint1_linear_206_3279)"/>
<defs>
<linearGradient id="paint0_linear_206_3279" x1="148.627" y1="67.4644" x2="8.33594" y2="67.4643" gradientUnits="userSpaceOnUse">
<stop stop-color="#F43838"/>
<stop offset="1" stop-color="#560404"/>
</linearGradient>
<linearGradient id="paint1_linear_206_3279" x1="748.665" y1="46.4626" x2="856.144" y2="41.2823" gradientUnits="userSpaceOnUse">
<stop stop-color="#F43838"/>
<stop offset="1" stop-color="#560505"/>
</linearGradient>
</defs>
</svg>
