<svg width="900" height="131" viewBox="0 0 900 131" fill="none" xmlns="http://www.w3.org/2000/svg">
<path d="M136.509 95L147.709 39.16H167.549C172.562 39.16 176.322 40.2267 178.829 42.36C181.389 44.4933 182.669 48.0933 182.669 53.16C182.669 56.2 182.189 59 181.229 61.56C180.269 64.12 178.936 66.3333 177.229 68.2C175.522 70.0667 173.469 71.5333 171.069 72.6C168.669 73.6133 166.002 74.12 163.069 74.12H151.629L147.469 95H136.509ZM153.549 64.52H164.029C165.896 64.52 167.309 64.04 168.269 63.08C169.282 62.12 170.002 60.5467 170.429 58.36C170.749 56.8133 170.962 55.6667 171.069 54.92C171.229 54.12 171.309 53.4533 171.309 52.92C171.309 51.5333 170.989 50.4933 170.349 49.8C169.762 49.1067 168.669 48.76 167.069 48.76H156.749L153.549 64.52ZM181.083 95L182.843 86.2H189.083L196.763 47.96H190.523L192.283 39.16H215.723L213.963 47.96H207.723L200.043 86.2H206.283L204.523 95H181.083ZM233.46 95.96C230.047 95.96 227.22 95.48 224.98 94.52C222.74 93.56 220.954 92.2533 219.62 90.6C218.34 88.8933 217.434 86.92 216.9 84.68C216.367 82.44 216.1 80.04 216.1 77.48C216.1 75.0267 216.287 72.5733 216.66 70.12C217.034 67.6133 217.46 65.2133 217.94 62.92C218.74 59.1333 219.834 55.72 221.22 52.68C222.607 49.64 224.34 47.0533 226.42 44.92C228.5 42.7333 230.927 41.08 233.7 39.96C236.474 38.7867 239.674 38.2 243.3 38.2C245.807 38.2 248.02 38.5467 249.94 39.24C251.86 39.9333 253.487 40.8933 254.82 42.12C256.207 43.2933 257.327 44.7067 258.18 46.36C259.034 48.0133 259.62 49.8 259.94 51.72L250.1 55.72C249.94 53 249.247 51.0267 248.02 49.8C246.794 48.52 244.954 47.88 242.5 47.88C240.687 47.88 239.087 48.12 237.7 48.6C236.367 49.08 235.194 49.88 234.18 51C233.22 52.12 232.367 53.64 231.62 55.56C230.927 57.48 230.287 59.88 229.7 62.76L228.02 71.16C227.754 72.3867 227.54 73.5067 227.38 74.52C227.274 75.5333 227.22 76.3867 227.22 77.08C227.22 80.28 227.834 82.6267 229.06 84.12C230.287 85.56 232.234 86.28 234.9 86.28C236.34 86.28 237.62 86.1467 238.74 85.88C239.914 85.56 240.927 85.08 241.78 84.44C242.687 83.7467 243.487 82.8667 244.18 81.8C244.874 80.68 245.514 79.2933 246.1 77.64L255.46 81.8C253.434 86.44 250.607 89.96 246.98 92.36C243.354 94.76 238.847 95.96 233.46 95.96ZM288.773 48.76L279.493 95H268.533L277.813 48.76H264.853L266.773 39.16H303.653L301.733 48.76H288.773ZM321.472 39.16L314.592 73.48C314.379 74.3867 314.192 75.3733 314.032 76.44C313.872 77.4533 313.792 78.4133 313.792 79.32C313.792 81.88 314.379 83.6933 315.552 84.76C316.779 85.7733 318.672 86.28 321.232 86.28C322.566 86.28 323.766 86.0933 324.832 85.72C325.899 85.3467 326.832 84.7067 327.632 83.8C328.432 82.8933 329.126 81.6667 329.712 80.12C330.299 78.5733 330.832 76.6267 331.312 74.28L338.352 39.16H349.312L342.272 74.28C341.472 78.2267 340.486 81.5867 339.312 84.36C338.139 87.08 336.672 89.32 334.912 91.08C333.206 92.7867 331.152 94.04 328.752 94.84C326.352 95.5867 323.526 95.96 320.272 95.96C314.246 95.96 309.846 94.7067 307.072 92.2C304.299 89.64 302.912 85.64 302.912 80.2C302.912 78.8133 302.992 77.48 303.152 76.2C303.366 74.8667 303.632 73.4267 303.952 71.88L310.512 39.16H321.472ZM359.266 95H348.306L359.506 39.16H379.346C384.359 39.16 388.119 40.2267 390.626 42.36C393.186 44.4933 394.466 48.0933 394.466 53.16C394.466 57.9067 393.319 62.0133 391.026 65.48C388.786 68.8933 385.693 71.2933 381.746 72.68L387.346 95H375.826L371.266 73.8H363.506L359.266 95ZM375.826 64.52C377.693 64.52 379.106 64.04 380.066 63.08C381.079 62.12 381.799 60.5467 382.226 58.36C382.546 56.8133 382.759 55.6667 382.866 54.92C383.026 54.12 383.106 53.4533 383.106 52.92C383.106 51.5333 382.786 50.4933 382.146 49.8C381.559 49.1067 380.466 48.76 378.866 48.76H368.546L365.346 64.52H375.826ZM395.884 95L407.084 39.16H439.644L437.724 48.76H416.124L413.484 61.96H432.524L430.604 71.56H411.564L408.764 85.4H431.084L429.164 95H395.884ZM454.634 95L465.834 39.16H485.674C490.687 39.16 494.447 40.2267 496.954 42.36C499.514 44.4933 500.794 48.0933 500.794 53.16C500.794 56.2 500.314 59 499.354 61.56C498.394 64.12 497.061 66.3333 495.354 68.2C493.647 70.0667 491.594 71.5333 489.194 72.6C486.794 73.6133 484.127 74.12 481.194 74.12H469.754L465.594 95H454.634ZM471.674 64.52H482.154C484.021 64.52 485.434 64.04 486.394 63.08C487.407 62.12 488.127 60.5467 488.554 58.36C488.874 56.8133 489.087 55.6667 489.194 54.92C489.354 54.12 489.434 53.4533 489.434 52.92C489.434 51.5333 489.114 50.4933 488.474 49.8C487.887 49.1067 486.794 48.76 485.194 48.76H474.874L471.674 64.52ZM499.208 95L500.968 86.2H507.208L514.888 47.96H508.648L510.408 39.16H533.848L532.088 47.96H525.848L518.168 86.2H524.408L522.648 95H499.208ZM561.038 48.76L551.758 95H540.798L550.078 48.76H537.118L539.038 39.16H575.918L573.998 48.76H561.038ZM604.691 95.96C600.638 95.96 597.011 95.1867 593.811 93.64C590.664 92.0933 588.318 89.56 586.771 86.04L595.331 79.56C596.291 81.8 597.518 83.48 599.011 84.6C600.504 85.72 602.584 86.28 605.251 86.28C608.398 86.28 610.798 85.56 612.451 84.12C614.158 82.6267 615.011 80.5733 615.011 77.96C615.011 76.0933 614.558 74.7067 613.651 73.8C612.744 72.8933 611.358 72.1467 609.491 71.56L606.451 70.6C602.718 69.4267 599.784 67.8 597.651 65.72C595.571 63.5867 594.531 60.4933 594.531 56.44C594.531 53.6667 595.011 51.16 595.971 48.92C596.931 46.68 598.291 44.76 600.051 43.16C601.864 41.56 604.024 40.3333 606.531 39.48C609.038 38.6267 611.838 38.2 614.931 38.2C618.824 38.2 622.211 38.8667 625.091 40.2C627.971 41.5333 630.184 43.48 631.731 46.04L623.651 53.08C622.798 51.48 621.704 50.2267 620.371 49.32C619.091 48.36 617.118 47.88 614.451 47.88C611.731 47.88 609.571 48.4667 607.971 49.64C606.424 50.76 605.651 52.5733 605.651 55.08C605.651 56.7867 606.078 58.04 606.931 58.84C607.838 59.5867 609.064 60.2 610.611 60.68L613.651 61.64C615.624 62.28 617.384 63 618.931 63.8C620.531 64.6 621.864 65.5867 622.931 66.76C624.051 67.88 624.904 69.2133 625.491 70.76C626.078 72.3067 626.371 74.12 626.371 76.2C626.371 78.8667 625.891 81.4 624.931 83.8C624.024 86.2 622.664 88.3067 620.851 90.12C619.038 91.88 616.771 93.2933 614.051 94.36C611.384 95.4267 608.264 95.96 604.691 95.96ZM659.788 48.76L650.508 95H639.548L648.828 48.76H635.868L637.788 39.16H674.668L672.748 48.76H659.788ZM689.867 95.96C686.453 95.96 683.627 95.48 681.387 94.52C679.147 93.56 677.36 92.2533 676.027 90.6C674.747 88.8933 673.84 86.92 673.307 84.68C672.773 82.44 672.507 80.04 672.507 77.48C672.507 75.0267 672.693 72.5733 673.067 70.12C673.44 67.6133 673.867 65.2133 674.347 62.92C675.147 59.1333 676.24 55.72 677.627 52.68C679.067 49.64 680.853 47.0533 682.987 44.92C685.12 42.7333 687.6 41.08 690.427 39.96C693.307 38.7867 696.587 38.2 700.267 38.2C703.68 38.2 706.48 38.68 708.667 39.64C710.907 40.6 712.693 41.9333 714.027 43.64C715.36 45.2933 716.293 47.24 716.827 49.48C717.36 51.72 717.627 54.12 717.627 56.68C717.627 59.1333 717.44 61.6133 717.067 64.12C716.693 66.5733 716.267 68.9467 715.787 71.24C714.987 75.0267 713.867 78.44 712.427 81.48C711.04 84.52 709.28 87.1333 707.147 89.32C705.013 91.4533 702.507 93.1067 699.627 94.28C696.8 95.4 693.547 95.96 689.867 95.96ZM691.307 86.28C693.12 86.28 694.693 86.04 696.027 85.56C697.36 85.08 698.507 84.28 699.467 83.16C700.48 82.04 701.333 80.52 702.027 78.6C702.773 76.68 703.44 74.28 704.027 71.4L705.707 63C705.973 61.7733 706.16 60.6533 706.267 59.64C706.427 58.6267 706.507 57.7733 706.507 57.08C706.507 53.88 705.893 51.56 704.667 50.12C703.44 48.6267 701.493 47.88 698.827 47.88C697.013 47.88 695.44 48.12 694.107 48.6C692.773 49.08 691.6 49.88 690.587 51C689.627 52.12 688.773 53.64 688.027 55.56C687.333 57.48 686.693 59.88 686.107 62.76L684.427 71.16C684.16 72.3867 683.947 73.5067 683.787 74.52C683.68 75.5333 683.627 76.3867 683.627 77.08C683.627 80.28 684.24 82.6267 685.467 84.12C686.693 85.56 688.64 86.28 691.307 86.28ZM719.478 95L730.678 39.16H750.518C755.531 39.16 759.291 40.2267 761.798 42.36C764.358 44.4933 765.638 48.0933 765.638 53.16C765.638 56.2 765.158 59 764.198 61.56C763.238 64.12 761.904 66.3333 760.198 68.2C758.491 70.0667 756.438 71.5333 754.038 72.6C751.638 73.6133 748.971 74.12 746.038 74.12H734.598L730.438 95H719.478ZM736.518 64.52H746.998C748.864 64.52 750.278 64.04 751.238 63.08C752.251 62.12 752.971 60.5467 753.398 58.36C753.718 56.8133 753.931 55.6667 754.038 54.92C754.198 54.12 754.278 53.4533 754.278 52.92C754.278 51.5333 753.958 50.4933 753.318 49.8C752.731 49.1067 751.638 48.76 750.038 48.76H739.718L736.518 64.52Z" fill="white"/>
<path d="M897.249 56.7072H884.417C882.949 56.7072 882.255 55.5096 882.874 54.0454L885.716 47.3419L888.722 40.2174C889.168 39.1648 888.164 38 887.02 38H873.273C871.805 38 870.094 39.1976 869.474 40.6618L866.642 47.3419L866.145 48.5161L863.8 54.0454C863.181 55.5096 861.469 56.7072 860.001 56.7072H847.028C845.56 56.7072 844.866 55.5096 845.485 54.0454L848.327 47.3419L851.16 40.6618C851.779 39.1976 851.085 38 849.617 38H835.885C834.417 38 832.705 39.1976 832.086 40.6618L829.253 47.3419L826.411 54.0454C825.792 55.5096 824.08 56.7072 822.612 56.7072H809.64C808.172 56.7072 807.478 55.5096 808.097 54.0454L810.442 48.5161L810.939 47.3419L813.771 40.6618C814.391 39.1976 813.696 38 812.228 38H798.496C797.028 38 795.316 39.1976 794.697 40.6618L791.865 47.3419L788.699 54.808C788.08 56.2722 788.774 57.4697 790.242 57.4697H803.214C804.682 57.4697 805.376 58.6673 804.757 60.1315L799.598 72.3082C798.979 73.7724 797.267 74.97 795.799 74.97H782.827C781.359 74.97 779.647 76.1676 779.028 77.6318L773.227 91.3336C772.607 92.7978 773.302 93.9953 774.77 93.9953H788.502C789.97 93.9953 791.682 92.7978 792.301 91.3336L797.783 78.3943C798.402 76.9301 800.114 75.7325 801.582 75.7325H814.555C816.023 75.7325 816.717 76.9301 816.098 78.3943L810.615 91.3336C809.996 92.7978 810.69 93.9953 812.158 93.9953H825.89C827.358 93.9953 829.07 92.7978 829.689 91.3336L835.172 78.3943C835.791 76.9301 837.503 75.7325 838.971 75.7325H851.943C853.411 75.7325 854.105 76.9301 853.486 78.3943L848.004 91.3336C847.385 92.7978 848.079 93.9953 849.547 93.9953H863.279C864.747 93.9953 866.459 92.7978 867.078 91.3336L872.56 78.3943C873.18 76.9301 874.891 75.7325 876.359 75.7325H889.229C890.819 75.7325 892.254 74.7829 892.868 73.3234L898.862 59.121C899.345 57.9749 898.501 56.7072 897.253 56.7072H897.249ZM842.146 60.1315L836.987 72.3082C836.368 73.7724 834.656 74.97 833.188 74.97H820.216C818.748 74.97 818.053 73.7724 818.673 72.3082L823.832 60.1315C824.451 58.6673 826.162 57.4697 827.63 57.4697H840.603C842.071 57.4697 842.765 58.6673 842.146 60.1315ZM879.535 60.1315L874.376 72.3082C873.756 73.7724 872.045 74.97 870.577 74.97H857.604C856.136 74.97 855.442 73.7724 856.061 72.3082L861.22 60.1315C861.839 58.6673 863.551 57.4697 865.019 57.4697H877.991C879.459 57.4697 880.154 58.6673 879.535 60.1315Z" fill="url(#paint0_linear_243_946)"/>
<path d="M124.232 37H110.499C109.031 37 107.319 38.1976 106.7 39.6618L101.217 52.601C100.598 54.0652 98.8864 55.2628 97.4184 55.2628H84.4455C82.9775 55.2628 82.2834 54.0652 82.9025 52.601L88.3852 39.6618C89.0043 38.1976 88.3102 37 86.8422 37H73.1095C71.6415 37 69.9296 38.1976 69.3105 39.6618L63.8278 52.601C63.2087 54.0652 61.4968 55.2628 60.0288 55.2628H47.0559C45.5879 55.2628 44.8938 54.0652 45.5129 52.601L50.9956 39.6618C51.6147 38.1976 50.9206 37 49.4526 37H35.7199C34.2519 37 32.54 38.1976 31.9209 39.6618L26.4382 52.601C25.8191 54.0652 24.1072 55.2628 22.6392 55.2628H9.76948C8.17953 55.2628 6.74435 56.2124 6.12995 57.672L0.140667 71.8743C-0.342415 73.0204 0.501806 74.2881 1.74938 74.2881H14.5815C16.0495 74.2881 16.7437 75.4857 16.1246 76.9499L13.2824 83.6534L10.276 90.778C9.83045 91.8305 10.8341 92.9953 11.9785 92.9953H25.7253C27.1933 92.9953 28.9052 91.7978 29.5243 90.3336L32.3571 83.6534L32.8542 82.4792L35.1993 76.9499C35.8184 75.4857 37.5303 74.2881 38.9983 74.2881H51.9712C53.4392 74.2881 54.1333 75.4857 53.5142 76.9499L50.672 83.6534L47.8392 90.3336C47.2201 91.7978 47.9142 92.9953 49.3822 92.9953H63.1149C64.5829 92.9953 66.2948 91.7978 66.9139 90.3336L69.7467 83.6534L72.5889 76.9499C73.208 75.4857 74.9199 74.2881 76.3879 74.2881H89.3608C90.8288 74.2881 91.5229 75.4857 90.9038 76.9499L88.5588 82.4792L88.0616 83.6534L85.2288 90.3336C84.6097 91.7978 85.3038 92.9953 86.7718 92.9953H100.504C101.972 92.9953 103.684 91.7978 104.303 90.3336L107.136 83.6534L110.302 76.1874C110.921 74.7232 110.227 73.5256 108.759 73.5256H95.7862C94.3182 73.5256 93.6241 72.328 94.2432 70.8638L99.4023 58.6871C100.021 57.2229 101.733 56.0253 103.201 56.0253H116.174C117.642 56.0253 119.354 54.8277 119.973 53.3635L125.78 39.6664C126.399 38.2022 125.705 37.0047 124.237 37.0047L124.232 37ZM42.9333 58.6871L37.7742 70.8638C37.1551 72.328 35.4432 73.5256 33.9752 73.5256H21.0023C19.5343 73.5256 18.8402 72.328 19.4593 70.8638L24.6184 58.6871C25.2375 57.2229 26.9494 56.0253 28.4174 56.0253H41.3903C42.8583 56.0253 43.5524 57.2229 42.9333 58.6871ZM80.3229 58.6871L75.1638 70.8638C74.5447 72.328 72.8328 73.5256 71.3648 73.5256H58.3919C56.9239 73.5256 56.2298 72.328 56.8489 70.8638L62.008 58.6871C62.6271 57.2229 64.339 56.0253 65.807 56.0253H78.7799C80.2479 56.0253 80.942 57.2229 80.3229 58.6871Z" fill="url(#paint1_linear_243_946)"/>
<defs>
<linearGradient id="paint0_linear_243_946" x1="773" y1="65.9977" x2="899" y2="65.9977" gradientUnits="userSpaceOnUse">
<stop stop-color="#F43838"/>
<stop offset="1"/>
</linearGradient>
<linearGradient id="paint1_linear_243_946" x1="126.006" y1="64.9977" x2="0.00262451" y2="64.9977" gradientUnits="userSpaceOnUse">
<stop stop-color="#F43838"/>
<stop offset="1"/>
</linearGradient>
</defs>
</svg>
