<svg width="241" height="32" viewBox="0 0 241 32" fill="none" xmlns="http://www.w3.org/2000/svg">
<path d="M42.1272 24L44.9272 10.04H49.8872C51.1405 10.04 52.0805 10.3067 52.7072 10.84C53.3472 11.3733 53.6672 12.2733 53.6672 13.54C53.6672 14.3 53.5472 15 53.3072 15.64C53.0672 16.28 52.7339 16.8333 52.3072 17.3C51.8805 17.7667 51.3672 18.1333 50.7672 18.4C50.1672 18.6533 49.5005 18.78 48.7672 18.78H45.9072L44.8672 24H42.1272ZM46.3872 16.38H49.0072C49.4739 16.38 49.8272 16.26 50.0672 16.02C50.3205 15.78 50.5005 15.3867 50.6072 14.84C50.6872 14.4533 50.7405 14.1667 50.7672 13.98C50.8072 13.78 50.8272 13.6133 50.8272 13.48C50.8272 13.1333 50.7472 12.8733 50.5872 12.7C50.4405 12.5267 50.1672 12.44 49.7672 12.44H47.1872L46.3872 16.38ZM53.2706 24L53.7106 21.8H55.2706L57.1906 12.24H55.6306L56.0706 10.04H61.9306L61.4906 12.24H59.9306L58.0106 21.8H59.5706L59.1306 24H53.2706ZM66.365 24.24C65.5117 24.24 64.805 24.12 64.245 23.88C63.685 23.64 63.2383 23.3133 62.905 22.9C62.585 22.4733 62.3583 21.98 62.225 21.42C62.0917 20.86 62.025 20.26 62.025 19.62C62.025 19.0067 62.0717 18.3933 62.165 17.78C62.2583 17.1533 62.365 16.5533 62.485 15.98C62.685 15.0333 62.9583 14.18 63.305 13.42C63.6517 12.66 64.085 12.0133 64.605 11.48C65.125 10.9333 65.7317 10.52 66.425 10.24C67.1183 9.94667 67.9183 9.8 68.825 9.8C69.4517 9.8 70.005 9.88667 70.485 10.06C70.965 10.2333 71.3717 10.4733 71.705 10.78C72.0517 11.0733 72.3317 11.4267 72.545 11.84C72.7583 12.2533 72.905 12.7 72.985 13.18L70.525 14.18C70.485 13.5 70.3117 13.0067 70.005 12.7C69.6983 12.38 69.2383 12.22 68.625 12.22C68.1717 12.22 67.7717 12.28 67.425 12.4C67.0917 12.52 66.7983 12.72 66.545 13C66.305 13.28 66.0917 13.66 65.905 14.14C65.7317 14.62 65.5717 15.22 65.425 15.94L65.005 18.04C64.9383 18.3467 64.885 18.6267 64.845 18.88C64.8183 19.1333 64.805 19.3467 64.805 19.52C64.805 20.32 64.9583 20.9067 65.265 21.28C65.5717 21.64 66.0583 21.82 66.725 21.82C67.085 21.82 67.405 21.7867 67.685 21.72C67.9783 21.64 68.2317 21.52 68.445 21.36C68.6717 21.1867 68.8717 20.9667 69.045 20.7C69.2183 20.42 69.3783 20.0733 69.525 19.66L71.865 20.7C71.3583 21.86 70.6517 22.74 69.745 23.34C68.8383 23.94 67.7117 24.24 66.365 24.24ZM80.1931 12.44L77.8731 24H75.1331L77.4531 12.44H74.2131L74.6931 10.04H83.9131L83.4331 12.44H80.1931ZM88.368 10.04L86.648 18.62C86.5946 18.8467 86.548 19.0933 86.508 19.36C86.468 19.6133 86.448 19.8533 86.448 20.08C86.448 20.72 86.5946 21.1733 86.888 21.44C87.1946 21.6933 87.668 21.82 88.308 21.82C88.6413 21.82 88.9413 21.7733 89.208 21.68C89.4746 21.5867 89.708 21.4267 89.908 21.2C90.108 20.9733 90.2813 20.6667 90.428 20.28C90.5746 19.8933 90.708 19.4067 90.828 18.82L92.588 10.04H95.328L93.568 18.82C93.368 19.8067 93.1213 20.6467 92.828 21.34C92.5346 22.02 92.168 22.58 91.728 23.02C91.3013 23.4467 90.788 23.76 90.188 23.96C89.588 24.1467 88.8813 24.24 88.068 24.24C86.5613 24.24 85.4613 23.9267 84.768 23.3C84.0746 22.66 83.728 21.66 83.728 20.3C83.728 19.9533 83.748 19.62 83.788 19.3C83.8413 18.9667 83.908 18.6067 83.988 18.22L85.628 10.04H88.368ZM97.8164 24H95.0764L97.8764 10.04H102.836C104.09 10.04 105.03 10.3067 105.656 10.84C106.296 11.3733 106.616 12.2733 106.616 13.54C106.616 14.7267 106.33 15.7533 105.756 16.62C105.196 17.4733 104.423 18.0733 103.436 18.42L104.836 24H101.956L100.816 18.7H98.8764L97.8164 24ZM101.956 16.38C102.423 16.38 102.776 16.26 103.016 16.02C103.27 15.78 103.45 15.3867 103.556 14.84C103.636 14.4533 103.69 14.1667 103.716 13.98C103.756 13.78 103.776 13.6133 103.776 13.48C103.776 13.1333 103.696 12.8733 103.536 12.7C103.39 12.5267 103.116 12.44 102.716 12.44H100.136L99.3364 16.38H101.956ZM106.971 24L109.771 10.04H117.911L117.431 12.44H112.031L111.371 15.74H116.131L115.651 18.14H110.891L110.191 21.6H115.771L115.291 24H106.971ZM121.658 24L124.458 10.04H129.418C130.672 10.04 131.612 10.3067 132.238 10.84C132.878 11.3733 133.198 12.2733 133.198 13.54C133.198 14.3 133.078 15 132.838 15.64C132.598 16.28 132.265 16.8333 131.838 17.3C131.412 17.7667 130.898 18.1333 130.298 18.4C129.698 18.6533 129.032 18.78 128.298 18.78H125.438L124.398 24H121.658ZM125.918 16.38H128.538C129.005 16.38 129.358 16.26 129.598 16.02C129.852 15.78 130.032 15.3867 130.138 14.84C130.218 14.4533 130.272 14.1667 130.298 13.98C130.338 13.78 130.358 13.6133 130.358 13.48C130.358 13.1333 130.278 12.8733 130.118 12.7C129.972 12.5267 129.698 12.44 129.298 12.44H126.718L125.918 16.38ZM132.802 24L133.242 21.8H134.802L136.722 12.24H135.162L135.602 10.04H141.462L141.022 12.24H139.462L137.542 21.8H139.102L138.662 24H132.802ZM148.26 12.44L145.94 24H143.2L145.52 12.44H142.28L142.76 10.04H151.98L151.5 12.44H148.26ZM159.173 24.24C158.159 24.24 157.253 24.0467 156.453 23.66C155.666 23.2733 155.079 22.64 154.693 21.76L156.833 20.14C157.073 20.7 157.379 21.12 157.753 21.4C158.126 21.68 158.646 21.82 159.313 21.82C160.099 21.82 160.699 21.64 161.113 21.28C161.539 20.9067 161.753 20.3933 161.753 19.74C161.753 19.2733 161.639 18.9267 161.413 18.7C161.186 18.4733 160.839 18.2867 160.373 18.14L159.613 17.9C158.679 17.6067 157.946 17.2 157.413 16.68C156.893 16.1467 156.633 15.3733 156.633 14.36C156.633 13.6667 156.753 13.04 156.993 12.48C157.233 11.92 157.573 11.44 158.013 11.04C158.466 10.64 159.006 10.3333 159.633 10.12C160.259 9.90667 160.959 9.8 161.733 9.8C162.706 9.8 163.553 9.96667 164.273 10.3C164.993 10.6333 165.546 11.12 165.933 11.76L163.913 13.52C163.699 13.12 163.426 12.8067 163.093 12.58C162.773 12.34 162.279 12.22 161.613 12.22C160.933 12.22 160.393 12.3667 159.993 12.66C159.606 12.94 159.413 13.3933 159.413 14.02C159.413 14.4467 159.519 14.76 159.733 14.96C159.959 15.1467 160.266 15.3 160.653 15.42L161.413 15.66C161.906 15.82 162.346 16 162.733 16.2C163.133 16.4 163.466 16.6467 163.733 16.94C164.013 17.22 164.226 17.5533 164.373 17.94C164.519 18.3267 164.593 18.78 164.593 19.3C164.593 19.9667 164.473 20.6 164.233 21.2C164.006 21.8 163.666 22.3267 163.213 22.78C162.759 23.22 162.193 23.5733 161.513 23.84C160.846 24.1067 160.066 24.24 159.173 24.24ZM172.947 12.44L170.627 24H167.887L170.207 12.44H166.967L167.447 10.04H176.667L176.187 12.44H172.947ZM180.467 24.24C179.613 24.24 178.907 24.12 178.347 23.88C177.787 23.64 177.34 23.3133 177.007 22.9C176.687 22.4733 176.46 21.98 176.327 21.42C176.193 20.86 176.127 20.26 176.127 19.62C176.127 19.0067 176.173 18.3933 176.267 17.78C176.36 17.1533 176.467 16.5533 176.587 15.98C176.787 15.0333 177.06 14.18 177.407 13.42C177.767 12.66 178.213 12.0133 178.747 11.48C179.28 10.9333 179.9 10.52 180.607 10.24C181.327 9.94667 182.147 9.8 183.067 9.8C183.92 9.8 184.62 9.92 185.167 10.16C185.727 10.4 186.173 10.7333 186.507 11.16C186.84 11.5733 187.073 12.06 187.207 12.62C187.34 13.18 187.407 13.78 187.407 14.42C187.407 15.0333 187.36 15.6533 187.267 16.28C187.173 16.8933 187.067 17.4867 186.947 18.06C186.747 19.0067 186.467 19.86 186.107 20.62C185.76 21.38 185.32 22.0333 184.787 22.58C184.253 23.1133 183.627 23.5267 182.907 23.82C182.2 24.1 181.387 24.24 180.467 24.24ZM180.827 21.82C181.28 21.82 181.673 21.76 182.007 21.64C182.34 21.52 182.627 21.32 182.867 21.04C183.12 20.76 183.333 20.38 183.507 19.9C183.693 19.42 183.86 18.82 184.007 18.1L184.427 16C184.493 15.6933 184.54 15.4133 184.567 15.16C184.607 14.9067 184.627 14.6933 184.627 14.52C184.627 13.72 184.473 13.14 184.167 12.78C183.86 12.4067 183.373 12.22 182.707 12.22C182.253 12.22 181.86 12.28 181.527 12.4C181.193 12.52 180.9 12.72 180.647 13C180.407 13.28 180.193 13.66 180.007 14.14C179.833 14.62 179.673 15.22 179.527 15.94L179.107 18.04C179.04 18.3467 178.987 18.6267 178.947 18.88C178.92 19.1333 178.907 19.3467 178.907 19.52C178.907 20.32 179.06 20.9067 179.367 21.28C179.673 21.64 180.16 21.82 180.827 21.82ZM187.869 24L190.669 10.04H195.629C196.883 10.04 197.823 10.3067 198.449 10.84C199.089 11.3733 199.409 12.2733 199.409 13.54C199.409 14.3 199.289 15 199.049 15.64C198.809 16.28 198.476 16.8333 198.049 17.3C197.623 17.7667 197.109 18.1333 196.509 18.4C195.909 18.6533 195.243 18.78 194.509 18.78H191.649L190.609 24H187.869ZM192.129 16.38H194.749C195.216 16.38 195.569 16.26 195.809 16.02C196.063 15.78 196.243 15.3867 196.349 14.84C196.429 14.4533 196.483 14.1667 196.509 13.98C196.549 13.78 196.569 13.6133 196.569 13.48C196.569 13.1333 196.489 12.8733 196.329 12.7C196.183 12.5267 195.909 12.44 195.509 12.44H192.929L192.129 16.38Z" fill="white"/>
<path fill-rule="evenodd" clip-rule="evenodd" d="M10.3242 18.3216H13.3888C13.7394 18.3216 13.9052 18.6211 13.7573 18.9871L13.0785 20.6632H17.6341L17.7528 20.3696L18.3129 18.9871C18.4608 18.6211 18.8696 18.3216 19.2202 18.3216H22.3185C22.6691 18.3216 22.8348 18.6211 22.687 18.9871L22.0082 20.6632H26.5637L27.2425 18.9871C27.3904 18.6211 27.7992 18.3216 28.1498 18.3216H31.2481C31.5987 18.3216 31.7645 18.6211 31.6166 18.9871L31.0566 20.3696L30.9378 20.6632H35.4934L36.2495 18.7965C36.3973 18.4304 36.2316 18.131 35.881 18.131H32.7827C32.4321 18.131 32.2663 17.8316 32.4142 17.4655L33.6463 14.4211C33.7942 14.055 34.203 13.7556 34.5536 13.7556H37.6519C38.0025 13.7556 38.4113 13.4561 38.5592 13.0901L39.9459 9.6655C40.0938 9.29942 39.928 9 39.5774 9H36.2976C35.947 9 35.5382 9.29942 35.3903 9.6655L34.0809 12.9006C33.9331 13.2667 33.5242 13.5661 33.1736 13.5661H30.0753C29.7247 13.5661 29.559 13.2667 29.7068 12.9006L31.0163 9.6655C31.1641 9.29942 30.9983 9 30.6477 9H27.368C27.0174 9 26.6086 9.29942 26.4607 9.6655L25.1513 12.9006C25.0034 13.2667 24.5946 13.5661 24.244 13.5661H21.1457C20.7951 13.5661 20.6293 13.2667 20.7772 12.9006L22.0866 9.6655C22.2345 9.29942 22.0687 9 21.7181 9H18.4384C18.0878 9 17.6789 9.29942 17.531 9.6655L16.2216 12.9006C16.0738 13.2667 15.6649 13.5661 15.3143 13.5661H12.2407C11.861 13.5661 11.5182 13.8035 11.3715 14.1684L9.93995 17.7193C9.82458 18.0059 10.0262 18.3228 10.3242 18.3228V18.3216ZM23.4856 17.4655L24.7178 14.4211C24.8656 14.055 25.2745 13.7556 25.6251 13.7556H28.7234C29.074 13.7556 29.2397 14.055 29.0919 14.4211L27.8597 17.4655C27.7119 17.8316 27.303 18.131 26.9524 18.131H23.8542C23.5036 18.131 23.3378 17.8316 23.4856 17.4655ZM14.556 17.4655L15.7881 14.4211C15.936 14.055 16.3448 13.7556 16.6954 13.7556H19.7937C20.1443 13.7556 20.3101 14.055 20.1622 14.4211L18.9301 17.4655C18.7822 17.8316 18.3734 18.131 18.0228 18.131H14.9245C14.5739 18.131 14.4081 17.8316 14.556 17.4655ZM7.95409 10.4749L7.3313 12.0199C7.27082 12.1696 7.37611 12.3345 7.53069 12.3345H8.923C9.14031 12.3345 9.33633 12.1988 9.42034 11.9895L10.0431 10.4444C10.1036 10.2947 9.99832 10.1298 9.84375 10.1298H8.45143C8.23412 10.1298 8.0381 10.2655 7.95409 10.4749ZM5.06746 19.3473L4.33377 21.1684C4.2632 21.3438 4.38642 21.538 4.569 21.538H6.20886C6.46425 21.538 6.695 21.3777 6.79469 21.1321L7.52837 19.3111C7.59894 19.1356 7.47573 18.9415 7.29315 18.9415H5.65328C5.39789 18.9415 5.16715 19.1017 5.06746 19.3473ZM0.0112077 16.6445L0.423414 15.6222C0.478301 15.4842 0.608235 15.3942 0.751611 15.3942H1.67236C1.77541 15.3942 1.84373 15.5041 1.80453 15.6024L1.39232 16.6246C1.33744 16.7626 1.2075 16.8526 1.06413 16.8526H0.143383C0.040331 16.8526 -0.0279967 16.7427 0.0112077 16.6445ZM21.7003 23C21.3497 23 21.1839 22.7006 21.3317 22.3345L22.0083 20.6643H26.5639L25.8873 22.3345C25.7394 22.7006 25.3306 23 24.98 23H21.7003ZM12.7673 23C12.4939 23 12.2542 22.7088 12.3606 22.4456L13.0787 20.6643H17.6342L16.9576 22.3345C16.8098 22.7006 16.4009 23 16.0503 23H12.7673ZM30.2603 22.3345L30.9368 20.6643H35.4924L34.8158 22.3345C34.668 22.7006 34.2591 23 33.9085 23H30.6288C30.2782 23 30.1124 22.7006 30.2603 22.3345Z" fill="url(#paint0_linear_98_5489)"/>
<path fill-rule="evenodd" clip-rule="evenodd" d="M219.299 10C219.65 10 219.816 10.2994 219.668 10.6655L218.991 12.3357H214.436L215.112 10.6655C215.26 10.2994 215.669 10 216.02 10H219.299ZM228.232 10C228.505 10 228.745 10.2912 228.639 10.5544L227.921 12.3357H223.365L224.042 10.6655C224.19 10.2994 224.598 10 224.949 10H228.232ZM210.74 10.6655L210.063 12.3357H205.508L206.184 10.6655C206.332 10.2994 206.741 10 207.091 10H210.371C210.722 10 210.887 10.2994 210.74 10.6655ZM235.933 13.6526L236.666 11.8315C236.737 11.6561 236.614 11.4619 236.431 11.4619H234.791C234.536 11.4619 234.305 11.6221 234.205 11.8678L233.472 13.6888C233.401 13.8643 233.524 14.0584 233.707 14.0584H235.347C235.602 14.0584 235.833 13.8982 235.933 13.6526ZM233.046 22.5251L233.669 20.9801C233.729 20.8304 233.624 20.6655 233.47 20.6655H232.077C231.86 20.6655 231.664 20.8011 231.58 21.0105L230.957 22.5555C230.897 22.7052 231.002 22.8701 231.157 22.8701H232.549C232.766 22.8701 232.962 22.7345 233.046 22.5251ZM240.989 16.3555L240.577 17.3777C240.522 17.5158 240.392 17.6058 240.248 17.6058H239.328C239.225 17.6058 239.156 17.4959 239.196 17.3976L239.608 16.3754C239.663 16.2374 239.793 16.1473 239.936 16.1473H240.857C240.96 16.1473 241.028 16.2573 240.989 16.3555ZM230.675 14.6784H227.61C227.26 14.6784 227.094 14.379 227.242 14.0129L227.921 12.3369H223.365L223.246 12.6304L222.686 14.0129C222.539 14.379 222.13 14.6784 221.779 14.6784H218.681C218.33 14.6784 218.165 14.379 218.312 14.0129L218.991 12.3369H214.436L213.757 14.0129C213.609 14.379 213.2 14.6784 212.85 14.6784H209.752C209.401 14.6784 209.235 14.379 209.383 14.0129L209.943 12.6304L210.062 12.3369H205.506L204.75 14.2035C204.603 14.5696 204.768 14.869 205.119 14.869H208.217C208.568 14.869 208.733 15.1684 208.586 15.5345L207.353 18.579C207.206 18.945 206.797 19.2445 206.446 19.2445H203.348C202.997 19.2445 202.589 19.5439 202.441 19.91L201.054 23.3345C200.906 23.7006 201.072 24 201.423 24H204.702C205.053 24 205.462 23.7006 205.61 23.3345L206.919 20.0994C207.067 19.7333 207.476 19.4339 207.826 19.4339H210.924C211.275 19.4339 211.441 19.7333 211.293 20.0994L209.983 23.3345C209.836 23.7006 210.001 24 210.352 24H213.632C213.982 24 214.391 23.7006 214.539 23.3345L215.848 20.0994C215.996 19.7333 216.405 19.4339 216.756 19.4339H219.854C220.204 19.4339 220.37 19.7333 220.222 20.0994L218.913 23.3345C218.765 23.7006 218.931 24 219.281 24H222.561C222.912 24 223.32 23.7006 223.468 23.3345L224.778 20.0994C224.925 19.7333 225.334 19.4339 225.685 19.4339H228.758C229.138 19.4339 229.481 19.1965 229.628 18.8316L231.059 15.2807C231.174 14.9942 230.973 14.6772 230.675 14.6772V14.6784ZM217.515 15.5345L216.283 18.579C216.135 18.945 215.726 19.2445 215.376 19.2445H212.277C211.927 19.2445 211.761 18.945 211.909 18.579L213.141 15.5345C213.289 15.1684 213.698 14.869 214.048 14.869H217.146C217.497 14.869 217.663 15.1684 217.515 15.5345ZM226.443 15.5345L225.211 18.579C225.063 18.945 224.654 19.2445 224.304 19.2445H221.206C220.855 19.2445 220.689 18.945 220.837 18.579L222.069 15.5345C222.217 15.1684 222.626 14.869 222.977 14.869H226.075C226.425 14.869 226.591 15.1684 226.443 15.5345Z" fill="url(#paint1_linear_98_5489)"/>
<defs>
<linearGradient id="paint0_linear_98_5489" x1="34.5" y1="16" x2="-3.383e-07" y2="16" gradientUnits="userSpaceOnUse">
<stop stop-color="#F43838"/>
<stop offset="1" stop-color="#560404"/>
</linearGradient>
<linearGradient id="paint1_linear_98_5489" x1="205.508" y1="11.8352" x2="231.939" y2="10.5612" gradientUnits="userSpaceOnUse">
<stop stop-color="#F43838"/>
<stop offset="1" stop-color="#560505"/>
</linearGradient>
</defs>
</svg>
