<svg width="899" height="131" viewBox="0 0 899 131" fill="none" xmlns="http://www.w3.org/2000/svg">
<path d="M213.736 109.48H205.176C202.296 109.48 200.242 109.053 199.016 108.2C197.842 107.4 197.256 105.933 197.256 103.8C197.256 103.213 197.336 102.44 197.496 101.48C197.656 100.573 197.842 99.6133 198.056 98.6L198.616 95.48C196.216 95.0533 194.216 94.28 192.616 93.16C191.069 92.04 189.816 90.7067 188.856 89.16C187.949 87.56 187.282 85.7733 186.856 83.8C186.482 81.7733 186.296 79.6667 186.296 77.48C186.296 75.0267 186.482 72.5733 186.856 70.12C187.229 67.6133 187.656 65.2133 188.136 62.92C188.936 59.1333 190.029 55.72 191.416 52.68C192.856 49.64 194.642 47.0533 196.776 44.92C198.909 42.7333 201.389 41.08 204.216 39.96C207.096 38.7867 210.376 38.2 214.056 38.2C217.469 38.2 220.269 38.68 222.456 39.64C224.696 40.6 226.483 41.9333 227.816 43.64C229.149 45.2933 230.083 47.24 230.616 49.48C231.149 51.72 231.416 54.12 231.416 56.68C231.416 59.1333 231.229 61.6133 230.856 64.12C230.483 66.5733 230.056 68.9467 229.576 71.24C228.829 74.6 227.843 77.6667 226.616 80.44C225.442 83.2133 224.002 85.64 222.296 87.72C220.589 89.8 218.563 91.5067 216.216 92.84C213.922 94.1733 211.309 95.08 208.376 95.56L207.256 101H215.416L213.736 109.48ZM205.096 86.28C206.909 86.28 208.482 86.04 209.816 85.56C211.149 85.08 212.322 84.28 213.336 83.16C214.349 82.04 215.202 80.52 215.896 78.6C216.589 76.68 217.229 74.28 217.816 71.4L219.496 63C219.762 61.7733 219.949 60.6533 220.056 59.64C220.216 58.6267 220.296 57.7733 220.296 57.08C220.296 53.88 219.683 51.56 218.456 50.12C217.229 48.6267 215.282 47.88 212.616 47.88C210.802 47.88 209.229 48.12 207.896 48.6C206.562 49.08 205.389 49.88 204.376 51C203.416 52.12 202.562 53.64 201.816 55.56C201.122 57.48 200.482 59.88 199.896 62.76L198.216 71.16C197.949 72.3867 197.736 73.5067 197.576 74.52C197.469 75.5333 197.416 76.3867 197.416 77.08C197.416 80.28 198.029 82.6267 199.256 84.12C200.482 85.56 202.429 86.28 205.096 86.28ZM255.027 39.16L248.147 73.48C247.934 74.3867 247.747 75.3733 247.587 76.44C247.427 77.4533 247.347 78.4133 247.347 79.32C247.347 81.88 247.934 83.6933 249.107 84.76C250.334 85.7733 252.227 86.28 254.787 86.28C256.12 86.28 257.32 86.0933 258.387 85.72C259.454 85.3467 260.387 84.7067 261.187 83.8C261.987 82.8933 262.68 81.6667 263.267 80.12C263.854 78.5733 264.387 76.6267 264.867 74.28L271.907 39.16H282.867L275.827 74.28C275.027 78.2267 274.04 81.5867 272.867 84.36C271.694 87.08 270.227 89.32 268.467 91.08C266.76 92.7867 264.707 94.04 262.307 94.84C259.907 95.5867 257.08 95.96 253.827 95.96C247.8 95.96 243.4 94.7067 240.627 92.2C237.854 89.64 236.467 85.64 236.467 80.2C236.467 78.8133 236.547 77.48 236.707 76.2C236.92 74.8667 237.187 73.4267 237.507 71.88L244.067 39.16H255.027ZM280.341 95L282.101 86.2H288.341L296.021 47.96H289.781L291.541 39.16H314.981L313.221 47.96H306.981L299.301 86.2H305.541L303.781 95H280.341ZM332.718 95.96C329.305 95.96 326.478 95.48 324.238 94.52C321.998 93.56 320.212 92.2533 318.878 90.6C317.598 88.8933 316.692 86.92 316.158 84.68C315.625 82.44 315.358 80.04 315.358 77.48C315.358 75.0267 315.545 72.5733 315.918 70.12C316.292 67.6133 316.718 65.2133 317.198 62.92C317.998 59.1333 319.092 55.72 320.478 52.68C321.865 49.64 323.598 47.0533 325.678 44.92C327.758 42.7333 330.185 41.08 332.958 39.96C335.732 38.7867 338.932 38.2 342.558 38.2C345.065 38.2 347.278 38.5467 349.198 39.24C351.118 39.9333 352.745 40.8933 354.078 42.12C355.465 43.2933 356.585 44.7067 357.438 46.36C358.292 48.0133 358.878 49.8 359.198 51.72L349.358 55.72C349.198 53 348.505 51.0267 347.278 49.8C346.052 48.52 344.212 47.88 341.758 47.88C339.945 47.88 338.345 48.12 336.958 48.6C335.625 49.08 334.452 49.88 333.438 51C332.478 52.12 331.625 53.64 330.878 55.56C330.185 57.48 329.545 59.88 328.958 62.76L327.278 71.16C327.012 72.3867 326.798 73.5067 326.638 74.52C326.532 75.5333 326.478 76.3867 326.478 77.08C326.478 80.28 327.092 82.6267 328.318 84.12C329.545 85.56 331.492 86.28 334.158 86.28C335.598 86.28 336.878 86.1467 337.998 85.88C339.172 85.56 340.185 85.08 341.038 84.44C341.945 83.7467 342.745 82.8667 343.438 81.8C344.132 80.68 344.772 79.2933 345.358 77.64L354.718 81.8C352.692 86.44 349.865 89.96 346.238 92.36C342.612 94.76 338.105 95.96 332.718 95.96ZM380.351 70.6L372.031 80.12L369.071 95H358.111L369.311 39.16H380.271L376.911 55.96L374.351 66.28H375.471L383.471 55.8L396.911 39.16H410.191L389.071 63.56L400.031 95H388.031L380.351 70.6ZM405.611 95L416.811 39.16H449.371L447.451 48.76H425.851L423.211 61.96H442.251L440.331 71.56H421.291L418.491 85.4H440.811L438.891 95H405.611ZM463.168 95.96C459.114 95.96 455.488 95.1867 452.288 93.64C449.141 92.0933 446.794 89.56 445.248 86.04L453.808 79.56C454.768 81.8 455.994 83.48 457.488 84.6C458.981 85.72 461.061 86.28 463.728 86.28C466.874 86.28 469.274 85.56 470.928 84.12C472.634 82.6267 473.488 80.5733 473.488 77.96C473.488 76.0933 473.034 74.7067 472.128 73.8C471.221 72.8933 469.834 72.1467 467.968 71.56L464.928 70.6C461.194 69.4267 458.261 67.8 456.128 65.72C454.048 63.5867 453.008 60.4933 453.008 56.44C453.008 53.6667 453.488 51.16 454.448 48.92C455.408 46.68 456.768 44.76 458.528 43.16C460.341 41.56 462.501 40.3333 465.008 39.48C467.514 38.6267 470.314 38.2 473.408 38.2C477.301 38.2 480.688 38.8667 483.568 40.2C486.448 41.5333 488.661 43.48 490.208 46.04L482.128 53.08C481.274 51.48 480.181 50.2267 478.848 49.32C477.568 48.36 475.594 47.88 472.928 47.88C470.208 47.88 468.048 48.4667 466.448 49.64C464.901 50.76 464.128 52.5733 464.128 55.08C464.128 56.7867 464.554 58.04 465.408 58.84C466.314 59.5867 467.541 60.2 469.088 60.68L472.128 61.64C474.101 62.28 475.861 63 477.408 63.8C479.008 64.6 480.341 65.5867 481.408 66.76C482.528 67.88 483.381 69.2133 483.968 70.76C484.554 72.3067 484.848 74.12 484.848 76.2C484.848 78.8667 484.368 81.4 483.408 83.8C482.501 86.2 481.141 88.3067 479.328 90.12C477.514 91.88 475.248 93.2933 472.528 94.36C469.861 95.4267 466.741 95.96 463.168 95.96ZM518.265 48.76L508.985 95H498.025L507.305 48.76H494.345L496.265 39.16H533.145L531.225 48.76H518.265ZM576.078 48.76L566.798 95H555.838L565.118 48.76H552.158L554.078 39.16H590.958L589.038 48.76H576.078ZM584.95 95L586.71 86.2H592.95L600.63 47.96H594.39L596.15 39.16H619.59L617.83 47.96H611.59L603.91 86.2H610.15L608.39 95H584.95ZM660.368 65.08L663.088 54.2H661.968L655.408 65.16L642.768 85.64L637.728 65.16L635.808 54.2H634.688L633.808 65.08L627.808 95H617.408L628.608 39.16H639.968L644.768 58.92L646.048 67.72H646.848L651.408 58.92L663.888 39.16H675.968L664.768 95H654.368L660.368 65.08ZM675.22 95L686.42 39.16H718.98L717.06 48.76H695.46L692.82 61.96H711.86L709.94 71.56H690.9L688.1 85.4H710.42L708.5 95H675.22Z" fill="white"/>
<path d="M169.229 39H155.497C154.029 39 152.317 40.1976 151.698 41.6618L146.215 54.601C145.596 56.0652 143.884 57.2628 142.416 57.2628H129.443C127.975 57.2628 127.281 56.0652 127.9 54.601L133.383 41.6618C134.002 40.1976 133.308 39 131.84 39H118.107C116.639 39 114.927 40.1976 114.308 41.6618L108.825 54.601C108.206 56.0652 106.494 57.2628 105.026 57.2628H92.0533C90.5853 57.2628 89.8911 56.0652 90.5102 54.601L95.993 41.6618C96.6121 40.1976 95.9179 39 94.4499 39H80.7173C79.2493 39 77.5374 40.1976 76.9183 41.6618L71.4355 54.601C70.8164 56.0652 69.1045 57.2628 67.6365 57.2628H54.7669C53.1769 57.2628 51.7417 58.2124 51.1273 59.672L45.138 73.8743C44.655 75.0204 45.4992 76.2881 46.7468 76.2881H59.5789C61.0469 76.2881 61.7411 77.4857 61.122 78.9499L58.2798 85.6534L55.2734 92.778C54.8278 93.8305 55.8315 94.9953 56.9759 94.9953H70.7226C72.1906 94.9953 73.9025 93.7978 74.5216 92.3336L77.3545 85.6534L77.8516 84.4792L80.1967 78.9499C80.8158 77.4857 82.5277 76.2881 83.9957 76.2881H96.9685C98.4365 76.2881 99.1307 77.4857 98.5116 78.9499L95.6694 85.6534L92.8365 92.3336C92.2174 93.7978 92.9116 94.9953 94.3796 94.9953H108.112C109.58 94.9953 111.292 93.7978 111.911 92.3336L114.744 85.6534L117.586 78.9499C118.205 77.4857 119.917 76.2881 121.385 76.2881H134.358C135.826 76.2881 136.52 77.4857 135.901 78.9499L133.556 84.4792L133.059 85.6534L130.226 92.3336C129.607 93.7978 130.301 94.9953 131.769 94.9953H145.502C146.97 94.9953 148.682 93.7978 149.301 92.3336L152.134 85.6534L155.3 78.1874C155.919 76.7232 155.224 75.5256 153.756 75.5256H140.784C139.316 75.5256 138.621 74.328 139.241 72.8638L144.4 60.6871C145.019 59.2229 146.731 58.0253 148.199 58.0253H161.172C162.64 58.0253 164.351 56.8277 164.971 55.3635L170.777 41.6664C171.396 40.2022 170.702 39.0047 169.234 39.0047L169.229 39ZM87.9307 60.6871L82.7715 72.8638C82.1525 74.328 80.4406 75.5256 78.9726 75.5256H65.9997C64.5317 75.5256 63.8375 74.328 64.4566 72.8638L69.6158 60.6871C70.2349 59.2229 71.9468 58.0253 73.4148 58.0253H86.3876C87.8556 58.0253 88.5498 59.2229 87.9307 60.6871ZM125.32 60.6871L120.161 72.8638C119.542 74.328 117.83 75.5256 116.362 75.5256H103.389C101.921 75.5256 101.227 74.328 101.846 72.8638L107.005 60.6871C107.624 59.2229 109.336 58.0253 110.804 58.0253H123.777C125.245 58.0253 125.939 59.2229 125.32 60.6871Z" fill="url(#paint0_linear_395_1072)"/>
<path d="M729.775 94.9951L743.507 94.9951C744.975 94.9951 746.687 93.7975 747.306 92.3333L752.789 79.3941C753.408 77.9299 755.12 76.7323 756.588 76.7323L769.561 76.7323C771.029 76.7323 771.723 77.9299 771.104 79.3941L765.621 92.3333C765.002 93.7975 765.696 94.9951 767.164 94.9951L780.897 94.9951C782.365 94.9951 784.077 93.7976 784.696 92.3333L790.179 79.3941C790.798 77.9299 792.51 76.7323 793.978 76.7323L806.951 76.7323C808.419 76.7323 809.113 77.9299 808.494 79.3941L803.011 92.3333C802.392 93.7976 803.086 94.9951 804.554 94.9951L818.287 94.9951C819.755 94.9951 821.467 93.7976 822.086 92.3333L827.568 79.3941C828.187 77.9299 829.899 76.7323 831.367 76.7323L844.237 76.7323C845.827 76.7323 847.262 75.7827 847.877 74.3232L853.866 60.1208C854.349 58.9747 853.505 57.707 852.257 57.707L839.425 57.707C837.957 57.707 837.263 56.5094 837.882 55.0452L840.724 48.3417L843.731 41.2172C844.176 40.1646 843.172 38.9998 842.028 38.9998L828.281 38.9998C826.813 38.9998 825.101 40.1974 824.482 41.6616L821.649 48.3417L821.152 49.5159L818.807 55.0452C818.188 56.5094 816.476 57.707 815.008 57.707L802.035 57.707C800.567 57.707 799.873 56.5094 800.492 55.0452L803.335 48.3417L806.167 41.6616C806.786 40.1974 806.092 38.9998 804.624 38.9998L790.892 38.9998C789.424 38.9998 787.712 40.1973 787.093 41.6616L784.26 48.3417L781.418 55.0452C780.799 56.5094 779.087 57.707 777.619 57.707L764.646 57.707C763.178 57.707 762.484 56.5094 763.103 55.0452L765.448 49.5159L765.945 48.3417L768.778 41.6616C769.397 40.1973 768.703 38.9998 767.235 38.9998L753.502 38.9998C752.034 38.9998 750.322 40.1973 749.703 41.6616L746.87 48.3417L743.704 55.8077C743.085 57.2719 743.779 58.4695 745.247 58.4695L758.22 58.4695C759.688 58.4695 760.382 59.6671 759.763 61.1313L754.604 73.308C753.985 74.7722 752.273 75.9698 750.805 75.9698L737.832 75.9698C736.364 75.9698 734.652 77.1674 734.033 78.6316L728.227 92.3287C727.608 93.7929 728.302 94.9904 729.77 94.9904L729.775 94.9951ZM811.073 73.308L816.232 61.1313C816.851 59.6671 818.563 58.4695 820.031 58.4695L833.004 58.4695C834.472 58.4695 835.166 59.6671 834.547 61.1313L829.388 73.308C828.769 74.7722 827.057 75.9698 825.589 75.9698L812.616 75.9698C811.148 75.9698 810.454 74.7722 811.073 73.308ZM773.684 73.308L778.843 61.1313C779.462 59.6671 781.174 58.4695 782.642 58.4695L795.615 58.4695C797.083 58.4695 797.777 59.6671 797.158 61.1313L791.999 73.308C791.379 74.7722 789.668 75.9698 788.2 75.9698L775.227 75.9698C773.759 75.9698 773.065 74.7722 773.684 73.308Z" fill="url(#paint1_linear_395_1072)"/>
<defs>
<linearGradient id="paint0_linear_395_1072" x1="171.003" y1="66.9977" x2="45" y2="66.9977" gradientUnits="userSpaceOnUse">
<stop stop-color="#F43838"/>
<stop offset="1"/>
</linearGradient>
<linearGradient id="paint1_linear_395_1072" x1="728" y1="66.9974" x2="854.004" y2="66.9975" gradientUnits="userSpaceOnUse">
<stop stop-color="#F43838"/>
<stop offset="1"/>
</linearGradient>
</defs>
</svg>
